<?xml version="1.0" encoding="utf-8"?>
<!-- Generator: Adobe Illustrator 22.0.1, SVG Export Plug-In . SVG Version: 6.00 Build 0)  -->
<svg version="1.1" xmlns="http://www.w3.org/2000/svg" xmlns:xlink="http://www.w3.org/1999/xlink" x="0px" y="0px"
	 viewBox="0 0 300 300" style="enable-background:new 0 0 300 300;" xml:space="preserve">
<style type="text/css">
	.st0{fill:none;}
	.st1{fill:#E6DBD8;stroke:#E6DBD8;stroke-width:2;stroke-miterlimit:10;}
	.st2{fill:#FFFFFF;}
	.st3{fill:#E6DBD8;}
	.st4{fill:none;stroke:#000000;stroke-miterlimit:10;}
	.st5{fill:#FFFFFF;stroke:#000000;stroke-miterlimit:10;}
	.st6{stroke:#000000;stroke-miterlimit:10;}
	.st7{fill:#783938;}
	.st8{fill:#E7DCD9;}
	.st9{fill:#D1D3D4;}
	.st10{fill:#D16277;}
	.st11{fill:none;stroke:#783938;stroke-width:2;stroke-miterlimit:10;}
	.st12{fill:url(#SVGID_1_);stroke:url(#SVGID_2_);stroke-width:2;stroke-miterlimit:10;}
	.st13{fill:#783938;stroke:#783938;stroke-width:2;stroke-miterlimit:10;}
	.st14{fill:#FFFFFF;stroke:#FFFFFF;stroke-width:0.25;}
	.st15{fill:#FFFFFF;stroke:#783938;stroke-width:2;stroke-miterlimit:10;}
	.st16{fill:url(#SVGID_3_);stroke:#783938;stroke-width:2;stroke-miterlimit:10;}
	.st17{fill-rule:evenodd;clip-rule:evenodd;fill:#783938;}
	.st18{fill:#EA3E27;}
	.st19{fill:#EB9687;}
	.st20{fill:url(#SVGID_4_);stroke:#783938;stroke-width:2;stroke-miterlimit:10;}
	.st21{fill:none;stroke:#783938;stroke-width:15;stroke-miterlimit:10;}
</style>
<pattern  x="-3148" y="-512" width="139.9" height="191.3" patternUnits="userSpaceOnUse" id="New_Pattern_Swatch_3" viewBox="0 -191.3 139.9 191.3" style="overflow:visible;">
	<g>
		<rect y="-191.3" class="st0" width="139.9" height="191.3"/>
		<rect x="1" y="-190.3" class="st1" width="137.9" height="9.2"/>
		<rect x="1" y="-172.3" class="st1" width="137.9" height="9.2"/>
		<rect x="1" y="-154.3" class="st1" width="137.9" height="9.2"/>
		<rect x="1" y="-136.3" class="st1" width="137.9" height="9.2"/>
		<rect x="1" y="-118.3" class="st1" width="137.9" height="9.2"/>
		<rect x="1" y="-100.3" class="st1" width="137.9" height="9.2"/>
		<rect x="1" y="-82.3" class="st1" width="137.9" height="9.2"/>
		<rect x="1" y="-64.3" class="st1" width="137.9" height="9.2"/>
		<rect x="1" y="-46.2" class="st1" width="137.9" height="9.2"/>
		<rect x="1" y="-28.2" class="st1" width="137.9" height="9.2"/>
		<rect x="1" y="-10.2" class="st1" width="137.9" height="9.2"/>
	</g>
</pattern>
<pattern  x="-3148" y="-512" width="200" height="170" patternUnits="userSpaceOnUse" id="New_Pattern_Swatch_7" viewBox="0 -170 200 170" style="overflow:visible;">
	<g>
		<rect y="-170" class="st0" width="200" height="170"/>
		<rect y="-170" class="st2" width="200" height="170"/>
		<g>
			<rect x="0.1" y="-170" class="st3" width="199.9" height="9.2"/>
			<rect y="-152.2" class="st3" width="199.9" height="9.2"/>
			<rect y="-134.3" class="st3" width="199.9" height="9.2"/>
			<rect y="-116.4" class="st3" width="199.9" height="9.2"/>
			<rect y="-98.5" class="st3" width="199.9" height="9.2"/>
			<rect y="-80.7" class="st3" width="199.9" height="9.2"/>
			<rect y="-62.8" class="st3" width="199.9" height="9.2"/>
			<rect y="-44.9" class="st3" width="199.9" height="9.2"/>
			<rect y="-27" class="st3" width="199.9" height="9.2"/>
			<rect y="-9.2" class="st3" width="199.9" height="9.2"/>
		</g>
	</g>
</pattern>
<g id="Layer_1">
	<path class="st4" d="M-2817.9-93.9c0-38.7,31.3-70,70-70s70,31.3,70,70"/>
	<line class="st4" x1="-2817.9" y1="-93.1" x2="-2817.9" y2="-73.1"/>
	<line class="st4" x1="-2677.9" y1="-93.1" x2="-2677.9" y2="-73.1"/>
	<line class="st4" x1="-2791" y1="-148.3" x2="-2791" y2="-73.1"/>
	<line class="st4" x1="-2706.7" y1="-141.5" x2="-2706.7" y2="-71.5"/>
	<path d="M-2748-168.7c1.1,0,2,0.5,2,1.1v7.7c0,0.6-0.9,1.1-2,1.1l0,0c-1.1,0-2-0.5-2-1.1v-7.7C-2750-168.2-2749.1-168.7-2748-168.7
		L-2748-168.7z"/>
	<line class="st4" x1="-2780.2" y1="-155.6" x2="-2764.4" y2="-121.3"/>
	<line class="st4" x1="-2764.4" y1="-121.3" x2="-2749" y2="-148.9"/>
	<line class="st4" x1="-2757.7" y1="-133.3" x2="-2750" y2="-121.3"/>
	<line class="st4" x1="-2742.1" y1="-133.3" x2="-2749.9" y2="-121.3"/>
	<line class="st4" x1="-2750" y1="-121.3" x2="-2750" y2="-73.1"/>
	<g>
		
			<rect x="-2758" y="-113.6" transform="matrix(0.6755 -0.7373 0.7373 0.6755 -815.2979 -2059.8018)" class="st5" width="20" height="20"/>
		
			<rect x="-2753" y="-108.6" transform="matrix(0.6755 -0.7373 0.7373 0.6755 -815.3171 -2059.8208)" class="st6" width="10" height="10"/>
	</g>
	<g>
		<line class="st5" x1="-2709.3" y1="-151.7" x2="-2744.7" y2="-113"/>
		<line class="st5" x1="-2703.4" y1="-146.3" x2="-2738.8" y2="-107.6"/>
	</g>
	<g>
		<line class="st5" x1="-2758.5" y1="-98" x2="-2778.8" y2="-75.9"/>
		<line class="st5" x1="-2752.6" y1="-92.6" x2="-2772.9" y2="-70.5"/>
	</g>
	<polyline class="st5" points="-2749.5,-148.9 -2734,-121.3 -2718.2,-155.6 	"/>
	<path class="st5" d="M-2792.3-242.8l-1.7,45c0,27,20.1,48.9,45,48.9c24.9,0,45-21.9,45-48.9l-1.7-45H-2792.3z"/>
	<circle class="st6" cx="-2732.7" cy="-211.6" r="11"/>
	<line class="st4" x1="-2730.7" y1="-211.6" x2="-2704.2" y2="-211.6"/>
	<line class="st4" x1="-2749.7" y1="-233.6" x2="-2731.7" y2="-211.6"/>
	<g>
		<circle class="st6" cx="-2765.1" cy="-212" r="5"/>
		<circle class="st6" cx="-2732.9" cy="-212" r="5"/>
	</g>
	<path d="M-2739.1-179.5c0,1.1-0.9,2-2,2h-13.5c-1.1,0-2-0.9-2-2l0,0c0-1.1,0.9-2,2-2h13.5C-2740-181.5-2739.1-180.6-2739.1-179.5
		L-2739.1-179.5z"/>
	<path class="st4" d="M-2704.2-226.6L-2704.2-226.6c4.2,0,7.7,3.4,7.7,7.7v2.3c0,4.2-3.4,7.7-7.7,7.7"/>
	<path class="st4" d="M-2793.5-209L-2793.5-209c-4.2,0-7.7-3.4-7.7-7.7v-2.3c0-4.2,3.4-7.7,7.7-7.7"/>
	<path class="st5" d="M-2699.8-254.5c-5.2-20.5-25.2-35.9-49.2-35.9s-44,15.3-49.2,35.9h-31.3v21.1h161v-21.1H-2699.8z"/>
	<g>
		<g>
			<path d="M-2762.4-270.6c0.6-0.1,1.1-0.4,1.4-1c0.6-1,0.2-2.2-0.8-2.8c-1-0.6-2.2-0.2-2.8,0.8c-0.3,0.5-0.3,1.2-0.2,1.7
				c-0.6,0.1-1.1,0.4-1.4,1c-0.6,1-0.2,2.2,0.8,2.8c1,0.6,2.2,0.2,2.8-0.8C-2762.3-269.4-2762.2-270.1-2762.4-270.6z"/>
			<path d="M-2732.7-253.4c0.6-0.1,1.1-0.4,1.4-1c0.6-1,0.2-2.2-0.8-2.8c-1-0.6-2.2-0.2-2.8,0.8c-0.3,0.5-0.3,1.2-0.2,1.7
				c-0.6,0.1-1.1,0.4-1.4,1c-0.6,1-0.2,2.2,0.8,2.8c1,0.6,2.2,0.2,2.8-0.8C-2732.5-252.3-2732.5-252.9-2732.7-253.4z"/>
			<rect x="-2749.2" y="-280.2" transform="matrix(0.5 -0.866 0.866 0.5 -1146.8448 -2511.1045)" width="2.1" height="35.7"/>
		</g>
		<path d="M-2763-254.4c0.2-0.5,0.2-1.2-0.2-1.7c-0.6-1-1.8-1.3-2.8-0.8c-1,0.6-1.3,1.8-0.8,2.8c0.3,0.5,0.8,0.9,1.4,1
			c-0.2,0.5-0.2,1.2,0.2,1.7c0.6,1,1.8,1.3,2.8,0.8c1-0.6,1.3-1.8,0.8-2.8C-2761.9-254-2762.4-254.3-2763-254.4z"/>
		<path d="M-2733.2-271.6c0.2-0.5,0.2-1.2-0.2-1.7c-0.6-1-1.8-1.3-2.8-0.8c-1,0.6-1.3,1.8-0.8,2.8c0.3,0.5,0.8,0.9,1.4,1
			c-0.2,0.5-0.2,1.2,0.2,1.7c0.6,1,1.8,1.3,2.8,0.8c1-0.6,1.3-1.8,0.8-2.8C-2732.2-271.2-2732.7-271.5-2733.2-271.6z"/>
		<rect x="-2766.6" y="-263.7" transform="matrix(0.866 -0.5 0.5 0.866 -236.9271 -1409.574)" width="35.7" height="2.1"/>
		<path class="st2" d="M-2736.6-262.7c0,6.7-5.4,12.1-12.1,12.1c-6.7,0-12.1-5.4-12.1-12.1c0-6.7,5.4-12.1,12.1-12.1
			C-2742-274.8-2736.6-269.4-2736.6-262.7z"/>
		<path d="M-2748.7-271.1c-5,0-9,4-9,9c0,1.9,0.6,3.6,1.5,5h2.4v2.8h10.2v-2.8h2.3c1-1.4,1.6-3.2,1.6-5
			C-2739.7-267.1-2743.7-271.1-2748.7-271.1z M-2751.9-262.1c-1,0-1.8-0.8-1.8-1.8c0-1,0.8-1.8,1.8-1.8c1,0,1.8,0.8,1.8,1.8
			C-2750.1-262.9-2750.9-262.1-2751.9-262.1z M-2750-258l1.2-2.7l1.2,2.7H-2750z M-2745.6-262.1c-1,0-1.8-0.8-1.8-1.8
			c0-1,0.8-1.8,1.8-1.8c1,0,1.8,0.8,1.8,1.8C-2743.8-262.9-2744.6-262.1-2745.6-262.1z"/>
	</g>
	<circle class="st7" cx="-1788" cy="-233.8" r="12"/>
	<path class="st7" d="M-1798.7-124.6c11.3,13.7,28.7,6.2,39.8-3.8c14.3-12.9,23-30.1,25-49.1c2.2-21.9-3.7-34.2-26-39.7
		c-18.1-4.4-36.4-0.2-34,21.8c1.3,12.5,15,30.9,3,41C-1791-154.4-1810.9-139.5-1798.7-124.6z"/>
	<circle class="st7" cx="-1765.1" cy="-234.8" r="6"/>
	<circle class="st7" cx="-1749.5" cy="-229.8" r="6"/>
	<circle class="st7" cx="-1736.5" cy="-221.4" r="6"/>
	<circle class="st7" cx="-1727" cy="-208.4" r="6"/>
	<path class="st7" d="M-2429.7-284.9c-55.2,0-100,44.8-100,100c0,55.2,44.8,100,100,100s100-44.8,100-100
		C-2329.7-240.1-2374.5-284.9-2429.7-284.9z M-2429.7-101.6c-46,0-83.3-37.3-83.3-83.3c0-46,37.3-83.3,83.3-83.3
		s83.3,37.3,83.3,83.3C-2346.4-138.9-2383.7-101.6-2429.7-101.6z"/>
	<g>
		<path d="M-2161.6-228.9c3.1-0.6,6-2.5,7.7-5.5c3.2-5.5,1.3-12.5-4.2-15.6c-5.5-3.2-12.5-1.3-15.6,4.2c-1.7,3-1.9,6.4-0.9,9.4
			c-3.1,0.6-6,2.5-7.7,5.5c-3.2,5.5-1.3,12.5,4.2,15.6c5.5,3.2,12.5,1.3,15.6-4.2C-2160.8-222.4-2160.6-225.9-2161.6-228.9z"/>
		<path d="M-1996.4-133.5c3.1-0.6,6-2.5,7.7-5.5c3.2-5.5,1.3-12.5-4.2-15.6c-5.5-3.2-12.5-1.3-15.6,4.2c-1.7,3-1.9,6.4-0.9,9.4
			c-3.1,0.6-6,2.5-7.7,5.5c-3.2,5.5-1.3,12.5,4.2,15.6c5.5,3.2,12.5,1.3,15.6-4.2C-1995.5-127-1995.3-130.4-1996.4-133.5z"/>
		<rect x="-2088" y="-282.2" transform="matrix(0.5 -0.866 0.866 0.5 -882.6147 -1894.8136)" width="11.4" height="198.3"/>
	</g>
	<path d="M-2164.9-139.1c1-3,0.8-6.4-0.9-9.4c-3.2-5.5-10.2-7.4-15.6-4.2c-5.5,3.2-7.4,10.2-4.2,15.6c1.7,3,4.6,4.8,7.7,5.5
		c-1,3-0.8,6.4,0.9,9.4c3.2,5.5,10.2,7.4,15.6,4.2c5.5-3.2,7.4-10.2,4.2-15.6C-2158.9-136.6-2161.8-138.5-2164.9-139.1z"/>
	<path d="M-1999.6-234.5c1-3,0.8-6.4-0.9-9.4c-3.2-5.5-10.2-7.4-15.6-4.2c-5.5,3.2-7.4,10.2-4.2,15.6c1.7,3,4.6,4.8,7.7,5.5
		c-1,3-0.8,6.4,0.9,9.4c3.2,5.5,10.2,7.4,15.6,4.2c5.5-3.2,7.4-10.2,4.2-15.6C-1993.6-232-1996.5-233.9-1999.6-234.5z"/>
	<rect x="-2184.7" y="-190.7" transform="matrix(0.866 -0.5 0.5 0.866 -186.9353 -1067.5118)" width="198.3" height="11.5"/>
	
		<ellipse transform="matrix(0.9853 -0.1711 0.1711 0.9853 0.8872 -359.5583)" class="st2" cx="-2085.5" cy="-184.9" rx="67.4" ry="67.4"/>
	<path d="M-2085.5-231.6c-27.6,0-50,22.4-50,50c0,10.4,3.2,20,8.6,28h13.1v15.3h56.7v-15.3h13.1c5.4-8,8.6-17.7,8.6-28
		C-2035.5-209.2-2057.9-231.6-2085.5-231.6z M-2103-181.6c-5.5,0-10-4.5-10-10c0-5.5,4.5-10,10-10c5.5,0,10,4.5,10,10
		C-2093-186.1-2097.5-181.6-2103-181.6z M-2092.4-159.1l6.9-15l6.9,15H-2092.4z M-2068-181.6c-5.5,0-10-4.5-10-10
		c0-5.5,4.5-10,10-10c5.5,0,10,4.5,10,10C-2058-186.1-2062.5-181.6-2068-181.6z"/>
	<rect x="-2398" y="209" class="st0" width="93" height="90.5"/>
	<rect x="-2492" y="353" class="st8" width="22" height="22"/>
	<rect x="-2135" y="272" class="st9" width="22" height="22"/>
	<rect x="-2492" y="326" class="st8" width="22" height="22"/>
	<rect x="-2492" y="384" class="st8" width="22" height="40"/>
	<rect x="-2492" y="440" class="st8" width="22" height="40"/>
	<rect x="-2460" y="326" class="st8" width="38" height="22"/>
	<rect x="-2460" y="353" class="st8" width="38" height="22"/>
	<rect x="-2460" y="440" class="st8" width="38" height="40"/>
	<rect x="-2143" y="263" class="st9" width="38" height="40"/>
	<rect x="-2460" y="384" class="st8" width="38" height="40"/>
	<rect x="-2398" y="326" class="st9" width="93" height="92"/>
	<rect x="-2622" y="384" class="st8" width="95" height="96"/>
	<rect x="-2622" y="326" class="st8" width="43" height="38"/>
	<rect x="-2563" y="326" class="st8" width="40" height="38"/>
	<rect x="-2398" y="209" class="st9" width="93" height="90.5"/>
	<rect x="-2622" y="209" class="st8" width="95" height="101"/>
	<rect x="-2506" y="272" class="st8" width="39" height="38"/>
	<rect x="-2449" y="263" class="st8" width="36" height="47"/>
	<rect x="-2283" y="263" class="st9" width="40" height="47"/>
	<rect x="-2231" y="272" class="st9" width="38" height="38"/>
	<rect x="-2283" y="326" class="st9" width="40" height="22"/>
	<rect x="-2283" y="353" class="st9" width="40" height="11"/>
	<rect x="-2231" y="330" class="st9" width="38" height="34"/>
	<rect x="-2506" y="209" class="st8" width="19.5" height="19"/>
	<rect x="-2506" y="234" class="st8" width="36" height="16"/>
	<rect x="-2449" y="209" class="st8" width="36" height="19"/>
	<rect x="-2449" y="234" class="st8" width="36" height="20.2"/>
	<rect x="-2283" y="209" class="st9" width="35" height="19"/>
	<rect x="-2283" y="234" class="st9" width="35" height="20.2"/>
	<rect x="-2231" y="209" class="st9" width="38" height="19"/>
	<rect x="-2231" y="234" class="st9" width="38" height="20.2"/>
	<rect x="-2283" y="384" class="st9" width="90" height="34"/>
	<rect x="-2382" y="440" class="st9" width="41" height="40"/>
	<rect x="-2270" y="440" class="st9" width="39" height="40"/>
	<rect x="-2325" y="480" class="st9" width="42" height="36"/>
	<rect x="-2398" y="526" class="st9" width="36.5" height="19"/>
	<rect x="-2341" y="526" class="st9" width="37" height="19"/>
	<rect x="-2681" y="440" class="st8" width="41" height="40"/>
	<rect x="-2681" y="326" class="st8" width="41" height="19"/>
	<rect x="-2681" y="283" class="st8" width="41" height="20"/>
	<rect x="-2685" y="209" class="st8" width="45" height="19"/>
	<rect x="-2486.5" y="209" class="st8" width="16.5" height="19"/>
	<rect x="-2681" y="234" class="st8" width="41" height="16"/>
	<rect x="-2685" y="384" class="st8" width="22.5" height="20"/>
	<rect x="-2662.5" y="384" class="st8" width="22.5" height="20"/>
	<rect x="-2685" y="411" class="st8" width="22.5" height="21"/>
	<rect x="-2662.5" y="411" class="st8" width="22.5" height="21"/>
	<rect x="-1948" y="208" class="st0" width="90.5" height="93"/>
	<rect x="-1773" y="565.5" class="st9" width="20" height="22.5"/>
	<rect x="-1746" y="565.5" class="st9" width="21" height="22.5"/>
	<g>
		<rect x="-1948" y="208" class="st8" width="90.5" height="93"/>
		<g>
			<rect x="-1831" y="208" class="st8" width="92" height="93"/>
			<g>
				<g>
					<g>
						<rect x="-1894" y="146" class="st8" width="47" height="40"/>
						<rect x="-1885" y="96" class="st8" width="38" height="38"/>
						<rect x="-1831" y="146" class="st8" width="22" height="40"/>
						<rect x="-1804" y="146" class="st8" width="11" height="40"/>
						<rect x="-1827" y="96" class="st8" width="34" height="38"/>
						<rect x="-1948" y="151" class="st8" width="19" height="35"/>
						<rect x="-1923" y="151" class="st8" width="20.2" height="35"/>
						<rect x="-1948" y="96" class="st8" width="19" height="38"/>
						<rect x="-1923" y="96" class="st8" width="20.2" height="38"/>
						<rect x="-1773" y="96" class="st8" width="34" height="90"/>
					</g>
					<rect x="-1717" y="134" class="st8" width="40" height="39"/>
				</g>
				<g>
					<g>
						<rect x="-1717" y="244" class="st8" width="40" height="41"/>
						<rect x="-1677" y="186" class="st8" width="36" height="42"/>
						<rect x="-1659" y="259.5" class="st8" width="19" height="36.5"/>
						<rect x="-1631" y="207" class="st8" width="19" height="37"/>
					</g>
					<g>
						<g>
							<rect x="-1804" y="373" class="st8" width="22" height="22"/>
							<rect x="-1831" y="373" class="st8" width="22" height="22"/>
							<rect x="-1773" y="373" class="st8" width="40" height="22"/>
							<rect x="-1717" y="373" class="st8" width="40" height="22"/>
							<rect x="-1831" y="325" class="st8" width="22" height="38"/>
							<rect x="-1804" y="325" class="st8" width="22" height="38"/>
							<rect x="-1717" y="325" class="st8" width="40" height="38"/>
							<rect x="-1773" y="325" class="st8" width="40" height="38"/>
							<rect x="-1885" y="370" class="st8" width="38" height="39"/>
							<rect x="-1894" y="316" class="st8" width="47" height="36"/>
							<rect x="-1948" y="389.5" class="st8" width="19" height="19.5"/>
							<rect x="-1923" y="373" class="st8" width="16" height="36"/>
							<rect x="-1948" y="316" class="st8" width="19" height="36"/>
							<rect x="-1923" y="316" class="st8" width="20.2" height="36"/>
							<rect x="-1948" y="373" class="st8" width="19" height="16.5"/>
						</g>
						<g>
							<rect x="-1773" y="430" class="st8" width="96" height="95"/>
							<rect x="-1831" y="482" class="st8" width="38" height="43"/>
							<rect x="-1831" y="426" class="st8" width="38" height="40"/>
							<rect x="-1948" y="430" class="st8" width="101" height="95"/>
							<rect x="-1717" y="543" class="st8" width="40" height="41"/>
							<rect x="-1831" y="543" class="st8" width="19" height="41"/>
							<rect x="-1874" y="543" class="st8" width="20" height="41"/>
							<rect x="-1948" y="543" class="st8" width="19" height="45"/>
							<rect x="-1923" y="543" class="st8" width="16" height="41"/>
							<rect x="-1773" y="543" class="st8" width="20" height="22.5"/>
							<rect x="-1746" y="543" class="st8" width="21" height="22.5"/>
						</g>
					</g>
				</g>
			</g>
		</g>
	</g>
	<circle class="st10" cx="-2508" cy="373" r="10.1"/>
	<g>
		<rect x="-1471.5" y="-150.7" class="st7" width="43.1" height="25.3"/>
		<path class="st7" d="M-1379.1-246.1h-29.8c-5-18-21.5-31.2-41.1-31.2s-36.1,13.2-41.1,31.2h-29.8c-7.5,0-13.5,6-13.5,13.5v141.8
			c0,7.5,6,13.5,13.5,13.5h141.8c7.5,0,13.5-6,13.5-13.5v-141.8C-1365.6-240-1371.6-246.1-1379.1-246.1z M-1450-258.4
			c13.1,0,23.6,10.6,23.6,23.6c0,13.1-10.6,23.6-23.6,23.6s-23.6-10.6-23.6-23.6C-1473.6-247.8-1463.1-258.4-1450-258.4z
			 M-1382.5-104.9c0,6-4.8,10.8-10.8,10.8h-113.4c-6,0-10.8-4.8-10.8-10.8v-113.4c0-6,4.8-10.8,10.8-10.8h14.5
			c2.7,21,20.6,37.2,42.3,37.2s39.6-16.2,42.3-37.2h14.5c6,0,10.8,4.8,10.8,10.8V-104.9z"/>
	</g>
	<g>
		<circle class="st7" cx="108.1" cy="56.5" r="21.5"/>
		<path class="st7" d="M88.9,251.6c20.2,24.6,51.4,11,71.1-6.8c25.6-23.1,41.2-53.9,44.7-87.8c4-39.3-6.5-61.2-46.5-71
			c-32.3-7.9-65-0.4-60.8,38.9c2.4,22.3,26.8,55.2,5.4,73.3C102.8,198.3,67.2,225.1,88.9,251.6z"/>
		<circle class="st7" cx="149.1" cy="54.7" r="10.7"/>
		<circle class="st7" cx="176.9" cy="63.6" r="10.7"/>
		<circle class="st7" cx="200.2" cy="78.5" r="10.7"/>
		<circle class="st7" cx="217.2" cy="101.8" r="10.7"/>
	</g>
</g>
<g id="Layer_3">
	<rect x="-709.2" y="453.3" class="st2" width="200" height="170"/>
	<path class="st11" d="M-859,523.1c-23.8,0-43-16.7-43-37.4"/>
	<path class="st11" d="M-948.3,606.9c0-65.7,20.5-119,45.8-119"/>
	<pattern  id="SVGID_1_" xlink:href="#New_Pattern_Swatch_3" patternTransform="matrix(1 0 0 1 54.0732 31.9346)">
	</pattern>
	<pattern  id="SVGID_2_" xlink:href="#New_Pattern_Swatch_3" patternTransform="matrix(1 0 0 1 54.0732 31.9346)">
	</pattern>
	<rect x="-1043.4" y="493.4" class="st12" width="53.5" height="44.8"/>
</g>
<g id="Layer_2">
	<g>
		<path class="st7" d="M-2392.2-203.8l7-4.1c0.2,0.5,0.4,1.1,0.7,1.6c1.9,3.3,6.1,4.4,9.4,2.5c3.3-1.9,4.4-6.1,2.5-9.4
			c-1-1.8-2.7-2.9-4.6-3.3l0,0c0.6-1.8,0.5-3.9-0.5-5.6c-1.9-3.3-6.1-4.4-9.4-2.5c-3.3,1.9-4.4,6.1-2.5,9.4c0.3,0.5,0.7,1,1.1,1.4
			l-7,4.1C-2394.3-207.9-2393.2-205.9-2392.2-203.8z"/>
		<path class="st7" d="M-2373.2-168.4c-3.3-1.9-7.5-0.8-9.4,2.5c-0.3,0.5-0.5,1.1-0.6,1.6l-9-5.2c-1,2.1-2.1,4.1-3.4,6l9,5.2
			c-0.4,0.4-0.8,0.8-1.1,1.4c-1.9,3.3-0.8,7.5,2.5,9.4c3.3,1.9,7.5,0.8,9.4-2.5c1-1.8,1.1-3.8,0.5-5.6l0,0c1.9-0.4,3.6-1.5,4.6-3.3
			C-2368.8-162.3-2369.9-166.5-2373.2-168.4z"/>
		<path class="st7" d="M-2469.8-216.3c1.9-3.3,0.8-7.5-2.5-9.4c-3.3-1.9-7.5-0.8-9.4,2.5c-1,1.8-1.1,3.8-0.5,5.6
			c-1.9,0.4-3.6,1.5-4.6,3.3c-1.9,3.3-0.8,7.5,2.5,9.4c3.3,1.9,7.5,0.8,9.4-2.5c0.3-0.5,0.5-1.1,0.6-1.6l9,5.2c1-2.1,2.1-4.1,3.4-6
			l-9-5.2C-2470.5-215.3-2470.1-215.8-2469.8-216.3z"/>
		<path class="st7" d="M-2465.3-169.5l-10.9,6.3c-0.1-0.5-0.4-1.1-0.7-1.6c-1.9-3.3-6.1-4.4-9.4-2.5c-3.3,1.9-4.4,6.1-2.5,9.4
			c1,1.8,2.7,2.9,4.6,3.3c-0.6,1.8-0.5,3.9,0.5,5.6c1.9,3.3,6.1,4.4,9.4,2.5c3.3-1.9,4.4-6.1,2.5-9.4c-0.3-0.5-0.7-1-1.1-1.4
			l10.9-6.3C-2463.2-165.4-2464.4-167.4-2465.3-169.5z"/>
		<path class="st7" d="M-2428.8-214.6c-16.6,0-30,13.4-30,30c0,6.2,1.9,12,5.2,16.8h7.8v9.2h34v-9.2h7.8c3.3-4.8,5.2-10.6,5.2-16.8
			C-2398.8-201.2-2412.2-214.6-2428.8-214.6z M-2439.3-184.6c-3.3,0-6-2.7-6-6c0-3.3,2.7-6,6-6c3.3,0,6,2.7,6,6
			C-2433.3-187.3-2435.9-184.6-2439.3-184.6z M-2432.9-171.1l4.1-9l4.1,9H-2432.9z M-2418.3-184.6c-3.3,0-6-2.7-6-6c0-3.3,2.7-6,6-6
			c3.3,0,6,2.7,6,6C-2412.3-187.3-2414.9-184.6-2418.3-184.6z"/>
	</g>
	<path class="st13" d="M-930.8-417.7c-5.2-18.4-25.2-32.2-49.2-32.2s-44,13.7-49.2,32.2h-31.3v19h161v-19H-930.8z"/>
	<path class="st7" d="M-790-226.1l-40-8l-40,8v72v12v4l40-8l40,8l40-8v-4v-12v-72L-790-226.1z M-792-154.5l-36-7.2v-67.9l36,7.2
		V-154.5z M-866-222.8l34-6.8v67.9l-34,6.8V-222.8z M-788-154.5v-67.9l34-6.8v67.9L-788-154.5z"/>
	<g id="layer1" transform="translate(-6.3260942,-174.7524)" inkscape:groupmode="layer" inkscape:label="Layer 1">
		<g id="g3052">
			
				<path id="path3055" inkscape:connector-curvature="0" inkscape:export-filename="new.png" inkscape:export-xdpi="250.55" inkscape:export-ydpi="250.55" class="st7" d="
				M-484.4-103.2c-1.8,0.1-3.5,0.5-5.1,1.3L-559-68.7c-3.6,1.7-6.3,5-7.2,8.9l-17.2,74.6c-0.8,3.5-0.1,7.1,1.8,10.1
				c0.2,0.4,0.5,0.7,0.8,1l48.1,59.8c2.5,3.1,6.3,5,10.4,5l77.2,0c4,0,7.9-1.8,10.4-5l48.1-59.8c2.5-3.1,3.5-7.2,2.6-11.2
				l-17.2-74.6c-0.9-3.9-3.5-7.2-7.2-8.9l-69.5-33.2C-479.9-102.9-482.1-103.3-484.4-103.2z"/>
			
				<path id="path3059" inkscape:connector-curvature="0" inkscape:export-filename="./path3059.png" inkscape:export-xdpi="250.55" inkscape:export-ydpi="250.55" sodipodi:nodetypes="ccccccccsccccscssccsccccccccscccsccccccccccccccscccscsccsccccscscsccccccccscccscsccccsccccscscscccccccccccccccscccsccccccccccccscccccscccccccccccccccccccccccscccscccccccccscccscccc" class="st14" d="
				M-483.7-77.8c-2.3,0-4.2,2.1-4.2,4.6c0,0,0,0.1,0,0.1c0,0.3,0,0.8,0,1.1c0.1,1.5,0.4,2.6,0.6,4c0.3,2.9,0.6,5.3,0.5,7.6
				c-0.2,0.8-0.8,1.6-1.4,2.2l-0.1,1.8c-2.5,0.2-5,0.6-7.5,1.2c-10.8,2.5-20.1,8-27.2,15.5c-0.5-0.3-1.3-0.9-1.5-1.1
				c-0.7,0.1-1.5,0.3-2.5-0.2c-1.9-1.3-3.6-3-5.6-5.1c-0.9-1-1.6-1.9-2.7-2.9c-0.3-0.2-0.6-0.5-0.9-0.7c-0.9-0.7-1.9-1.1-2.9-1.1
				c-1.3,0-2.5,0.5-3.3,1.5c-1.4,1.8-1,4.5,1,6.1c0,0,0,0,0.1,0c0.3,0.2,0.6,0.5,0.9,0.7c1.2,0.9,2.3,1.3,3.5,2
				c2.5,1.5,4.6,2.8,6.2,4.3c0.6,0.7,0.8,1.9,0.8,2.4l1.3,1.2c-7.1,10.7-10.4,24-8.5,37.5l-1.7,0.5c-0.5,0.6-1.1,1.5-1.8,1.8
				c-2.1,0.7-4.6,0.9-7.5,1.2c-1.4,0.1-2.5,0-4,0.3c-0.3,0.1-0.8,0.2-1.1,0.3c0,0,0,0,0,0c0,0,0,0-0.1,0c-2.5,0.6-4,2.8-3.5,5.1
				c0.5,2.2,2.9,3.6,5.4,3c0,0,0,0,0.1,0c0,0,0.1,0,0.1,0c0.3-0.1,0.8-0.2,1.1-0.2c1.4-0.4,2.5-0.9,3.7-1.4c2.8-1,5-1.8,7.3-2.1
				c0.9-0.1,1.9,0.6,2.4,0.8l1.8-0.3c4.2,12.9,12.9,23.4,24,30l-0.8,1.8c0.3,0.7,0.6,1.7,0.4,2.4c-0.8,2.1-2.2,4.3-3.8,6.8
				c-0.8,1.1-1.5,2-2.2,3.3c-0.2,0.3-0.4,0.8-0.5,1.1c-1.1,2.3-0.3,4.9,1.8,5.9c2.1,1,4.6-0.1,5.7-2.3c0,0,0,0,0,0c0,0,0,0,0,0
				c0.2-0.3,0.4-0.8,0.5-1.1c0.6-1.4,0.8-2.5,1.2-3.8c1.1-2.8,1.7-5.7,3.2-7.5c0.4-0.5,1.1-0.7,1.8-0.9l0.9-1.7
				c9.7,3.7,20.5,4.7,31.3,2.2c2.5-0.6,4.8-1.3,7.1-2.2c0.3,0.5,0.8,1.4,0.9,1.6c0.7,0.2,1.5,0.4,2.1,1.3c1.1,1.9,1.9,4.2,2.9,7
				c0.4,1.3,0.6,2.5,1.2,3.8c0.1,0.3,0.4,0.7,0.5,1.1c1.1,2.3,3.7,3.4,5.8,2.4c2.1-1,2.8-3.6,1.8-5.9c-0.2-0.3-0.4-0.8-0.5-1.1
				c-0.7-1.3-1.5-2.2-2.2-3.3c-1.6-2.5-2.9-4.5-3.7-6.6c-0.3-1.1,0.1-1.8,0.3-2.5c-0.2-0.2-0.5-1.2-0.7-1.7
				c11.5-6.8,20-17.6,24-30.2c0.5,0.1,1.5,0.2,1.8,0.3c0.6-0.4,1.2-1,2.3-0.9c2.2,0.3,4.5,1.1,7.3,2.1c1.3,0.5,2.3,1.1,3.7,1.4
				c0.3,0.1,0.7,0.2,1.1,0.2c0,0,0.1,0,0.1,0c0,0,0,0,0.1,0c2.5,0.5,4.9-0.8,5.4-3c0.5-2.2-1.1-4.5-3.5-5.1
				c-0.4-0.1-0.9-0.2-1.2-0.3c-1.4-0.3-2.6-0.2-4-0.3c-2.9-0.3-5.3-0.6-7.5-1.2c-0.9-0.3-1.5-1.4-1.8-1.8l-1.7-0.5
				c0.9-6.3,0.6-12.9-0.9-19.4c-1.5-6.6-4.2-12.7-7.8-18c0.4-0.4,1.2-1.1,1.5-1.3c0.1-0.7,0-1.5,0.8-2.4c1.6-1.5,3.7-2.8,6.2-4.3
				c1.2-0.7,2.3-1.1,3.5-2c0.3-0.2,0.6-0.5,0.9-0.7c2-1.6,2.5-4.3,1-6.1c-1.4-1.8-4.2-2-6.2-0.4c-0.3,0.2-0.7,0.5-0.9,0.7
				c-1.1,1-1.8,1.9-2.7,2.9c-2.1,2.1-3.7,3.8-5.6,5.1c-0.8,0.5-2,0.3-2.5,0.3l-1.6,1.1c-9-9.5-21.3-15.5-34.5-16.7
				c0-0.6-0.1-1.6-0.1-1.9c-0.5-0.5-1.2-1-1.4-2.1c-0.2-2.2,0.1-4.6,0.5-7.6c0.2-1.4,0.5-2.5,0.6-4c0-0.3,0-0.8,0-1.2
				C-479.5-75.7-481.4-77.8-483.7-77.8L-483.7-77.8z M-488.9-45.5l-1.2,21.8l-0.1,0c-0.1,2-1.7,3.5-3.7,3.5c-0.8,0-1.6-0.3-2.2-0.7
				l0,0L-514-33.5c5.5-5.4,12.5-9.4,20.6-11.2C-491.8-45.1-490.4-45.4-488.9-45.5z M-478.5-45.5c9.5,1.2,18.2,5.5,24.9,12
				l-17.8,12.6l-0.1,0c-1.6,1.2-3.8,0.9-5-0.7c-0.5-0.6-0.8-1.4-0.8-2.1l0,0L-478.5-45.5z M-520.5-25.4l16.3,14.6l0,0.1
				c1.5,1.3,1.7,3.5,0.5,5.1c-0.5,0.6-1.2,1.1-1.9,1.3l0,0.1l-21,6C-527.6-8-525.3-17.5-520.5-25.4z M-447-25.4
				c2.4,3.9,4.3,8.3,5.4,13.1c1.1,4.7,1.4,9.4,0.9,14l-21.1-6.1l0-0.1c-1.9-0.5-3-2.4-2.6-4.4c0.2-0.8,0.6-1.5,1.2-1.9l0,0
				L-447-25.4L-447-25.4z M-487-9.6h6.7l4.2,5.2l-1.5,6.5l-6,2.9l-6-2.9l-1.5-6.5L-487-9.6z M-465.6,8.2c0.3,0,0.6,0,0.8,0.1l0,0
				l21.7,3.7c-3.2,8.9-9.2,16.6-17.3,21.8l-8.4-20.3l0,0c-0.8-1.8,0-3.9,1.8-4.8C-466.5,8.3-466,8.2-465.6,8.2L-465.6,8.2z
				 M-502,8.3c1.7,0,3.1,1.2,3.5,2.9c0.2,0.8,0.1,1.6-0.2,2.3l0.1,0.1l-8.3,20.1c-7.8-5-14-12.5-17.3-21.6l21.5-3.6l0,0
				C-502.4,8.3-502.2,8.3-502,8.3L-502,8.3z M-483.8,17.1c0.6,0,1.2,0.1,1.7,0.4c0.7,0.4,1.3,0.9,1.6,1.6h0.1l10.6,19.1
				c-1.4,0.5-2.8,0.9-4.2,1.2c-8.1,1.8-16.2,1.3-23.5-1.2l10.6-19.1h0C-486.3,17.8-485.1,17.1-483.8,17.1z"/>
		</g>
	</g>
	<path class="st7" d="M-179.5-295.7c8.6,0,14.3,6.7,14.3,14.3c0,7.6-5.7,14.3-14.3,14.3c-7.6,0-14.3-6.7-14.3-14.3
		C-193.8-289-187.1-295.7-179.5-295.7L-179.5-295.7z M-179.5-305.2c-12.4,0-23.8,10.5-23.8,23.8c0,13.3,11.4,23.8,23.8,23.8
		c12.4,0,23.8-10.5,23.8-23.8C-155.7-294.8-166.2-305.2-179.5-305.2L-179.5-305.2L-179.5-305.2z"/>
	<path class="st7" d="M-108.1-267.1l-28.6,16.2v22.9l-35.2-20l-50.5,28.6v34.3l-19-10.5l-28.6,16.2v33.3l28.6,16.2l28.6-16.2v-10.5
		l42.9,22.9l47.6-28.6V-209l14.3,8.6l28.6-16.2V-250L-108.1-267.1L-108.1-267.1z M-171.9-236.7l36.2,20l-33.3,17.1l-38.1-17.1
		L-171.9-236.7L-171.9-236.7z M-222.4-151.9l-19,11.4l-19-10.5v-21.9l19-11.4l19,10.5V-151.9L-222.4-151.9z M-212.9-208.1l38.1,17.1
		v43.8l-38.1-20.9V-208.1L-212.9-208.1z M-165.2-148.1v-42.9l33.3-17.1v40L-165.2-148.1L-165.2-148.1z M-89-222.4l-19,11.4l-19-11.4
		v-22.9l19-11.4l19,11.4V-222.4L-89-222.4z"/>
	<path class="st7" d="M-246.2-267.1c8.6,0,14.3,6.7,14.3,14.3s-5.7,14.3-14.3,14.3s-14.3-6.7-14.3-14.3S-253.8-267.1-246.2-267.1
		L-246.2-267.1z M-246.2-276.7c-13.3,0-23.8,10.5-23.8,23.8c0,13.3,10.5,23.8,23.8,23.8c13.3,0,23.8-10.5,23.8-23.8
		C-222.4-266.2-232.9-276.7-246.2-276.7L-246.2-276.7L-246.2-276.7z"/>
	<path class="st7" d="M-160.5-114.8c7.6,0,14.3,6.7,14.3,14.3c0,7.6-5.7,14.3-14.3,14.3c-8.6,0-14.3-6.7-14.3-14.3
		C-174.8-108.1-168.1-114.8-160.5-114.8L-160.5-114.8z M-160.5-124.3c-13.3,0-23.8,10.5-23.8,23.8c0,13.3,10.5,23.8,23.8,23.8
		c13.3,0,23.8-10.5,23.8-23.8C-136.7-113.8-147.1-124.3-160.5-124.3L-160.5-124.3L-160.5-124.3z"/>
	<path class="st7" d="M-93.8-152.9c7.6,0,14.3,6.7,14.3,14.3c0,7.6-6.7,14.3-14.3,14.3s-14.3-6.7-14.3-14.3
		C-108.1-146.2-101.4-152.9-93.8-152.9L-93.8-152.9z M-93.8-162.4c-13.3,0-23.8,10.5-23.8,23.8c0,13.3,10.5,23.8,23.8,23.8
		S-70-125.2-70-138.6C-70-151.9-80.5-162.4-93.8-162.4L-93.8-162.4L-93.8-162.4z"/>
	<g id="Lockup">
		<path id="Avatar_Flat" class="st7" d="M53.1-204.1c-0.9,0-1.8-0.3-2.5-0.6l-24-13.8c-2.5-1.2-3.1-4.3-1.8-6.8
			c1.5-2.5,4.6-3.4,6.8-1.8l24,13.8c2.5,1.2,3.1,4.3,1.8,6.8C56.8-205,54.9-204.1,53.1-204.1z M96.5-245.3c2.5-1.2,3.1-4.3,1.8-6.8
			l-13.8-24.3c-1.2-2.5-4.3-3.1-6.8-1.8c-2.5,1.2-3.1,4.3-1.8,6.8l13.8,24c0.9,1.5,2.5,2.5,4.3,2.5C94.9-244.7,95.8-245,96.5-245.3z
			 M154.9-264.7v-27.7c0-2.8-2.2-4.9-4.9-4.9c-2.8,0-4.9,2.2-4.9,4.9v27.7c0,2.8,2.2,4.9,4.9,4.9
			C152.8-259.8,154.9-261.9,154.9-264.7z M210-247.2l13.8-24c1.2-2.5,0.6-5.5-1.8-6.8c-2.5-1.2-5.5-0.6-6.8,1.8l-13.8,24
			c-1.5,2.2-0.6,5.2,1.8,6.8c0.9,0.3,1.5,0.6,2.5,0.6C207.5-244.7,209.1-245.6,210-247.2z M249.4-204.7l24-13.8
			c2.5-1.2,3.1-4.3,1.8-6.8c-1.2-2.5-4.3-3.1-6.8-1.8l-24,13.8c-2.5,1.2-3.1,4.3-1.8,6.8c0.9,1.5,2.5,2.5,4.3,2.5
			C247.5-204.1,248.5-204.1,249.4-204.7z M154.3-240.7c-9.2,0-19.7,2.2-25.8,4.3c-0.6,0.3-1.2,0.6-1.2,0.9c0,0.6,0.6,0.9,0.9,0.9
			c0.3,0,1.8-0.3,2.8-0.6c5.2-0.9,8-1.2,15.4-1.2c8.3,0,16.9,1.5,24.9,4.6c-32.3,12.3-64.6,57.2-75.7,97.5
			c-12-13.2-19.4-28.3-19.4-42.2c0-23.7,19.4-37.8,47.4-37.8c0.9,0,1.5,0,2.2,0c0.6,0,0.6-0.6,0.6-0.9c0-0.6-0.3-0.9-0.9-0.9
			c-1.8-0.3-6.2-0.9-10.8-0.9C86.3-217,66-202.5,66-176.4c0,17.8,10.5,36.9,26.8,53.5c-0.9,5.5-1.5,11.1-1.5,16.3
			c0,2.2,0.3,6.5,0.9,10.8c-9.8-8.6-17.2-19.1-21.2-29.5c-0.9-2.2-2.5-6.2-2.8-7.7c-0.3-0.9-0.6-0.9-1.2-0.9c-0.6,0-0.9,0.3-0.9,0.9
			c0,0.6,0.3,2.5,0.3,3.1c5.8,29.5,35.1,67.1,83.4,67.1c53.2,0,89.8-44,89.8-89.8C239.8-200.4,203.5-240.7,154.3-240.7z M149.7-73
			c-17.5,0-31.7-6.2-37.8-9.5c-8.3-4.6-10.8-12.9-10.8-23.1c0-3.1,0.3-6.2,0.6-9.2C122.9-97,150.9-85,179.2-85
			c6.2,0,12-0.9,17.2-2.5l0,0C186.9-80.7,170.3-73,149.7-73z M178.9-94.8c-26.8,0-55.1-13.2-75.1-31.1
			c10.5-46.5,52.3-98.2,79.4-98.2c3.1,0,5.5,0.6,9.2,2.8c5.2,3.4,10.2,7.1,14.2,11.1c12.3,12,24,32.3,24,57.5
			c0,19.7-6.8,34.8-13.8,44C208.5-98.8,194-94.8,178.9-94.8z"/>
	</g>
	<g>
		<rect x="401.5" y="-206" transform="matrix(0.866 -0.5 0.5 0.866 151.9716 203.6288)" class="st7" width="109" height="48.5"/>
		<rect x="502.3" y="-252.9" transform="matrix(0.866 -0.5 0.5 0.866 175.125 227.3821)" class="st11" width="19" height="79.6"/>
		
			<rect x="537" y="-295.2" transform="matrix(0.8659 -0.5002 0.5002 0.8659 187.4444 239.2384)" class="st7" width="6" height="130.4"/>
		<rect x="366" y="-152.5" transform="matrix(0.866 -0.5 0.5 0.866 124.1192 176.0239)" class="st7" width="49" height="17.9"/>
		<g>
			<polygon class="st7" points="513.7,-85.5 507.6,-82 463.7,-158.4 469.8,-162 			"/>
			<polygon class="st7" points="422.3,-85.5 428.4,-82 472.3,-158.4 466.2,-162 			"/>
		</g>
		<rect x="414.2" y="-87.9" class="st7" width="23.8" height="11.9"/>
		<rect x="497.9" y="-87.9" class="st7" width="23.8" height="11.9"/>
		<circle class="st15" cx="467.9" cy="-157.7" r="19.5"/>
		<rect x="520.4" y="-263.5" transform="matrix(0.866 -0.5 0.5 0.866 182.8716 234.9948)" class="st13" width="19" height="79.6"/>
	</g>
	<g>
		<rect x="-709.1" y="453.3" class="st3" width="199.9" height="9.2"/>
		<rect x="-709.2" y="471.1" class="st3" width="199.9" height="9.2"/>
		<rect x="-709.2" y="489" class="st3" width="199.9" height="9.2"/>
		<rect x="-709.2" y="506.9" class="st3" width="199.9" height="9.2"/>
		<rect x="-709.2" y="524.8" class="st3" width="199.9" height="9.2"/>
		<rect x="-709.2" y="542.6" class="st3" width="199.9" height="9.2"/>
		<rect x="-709.2" y="560.5" class="st3" width="199.9" height="9.2"/>
		<rect x="-709.2" y="578.4" class="st3" width="199.9" height="9.2"/>
		<rect x="-709.2" y="596.3" class="st3" width="199.9" height="9.2"/>
		<rect x="-709.2" y="614.1" class="st3" width="199.9" height="9.2"/>
	</g>
	<g>
		<path class="st11" d="M-1072.5,134c0,51.9-43.2,58.2-75,58.2s-40-22.2-40-74.1c0-51.9,22.9-81.5,54.7-81.5S-1072.5,82-1072.5,134z
			"/>
		<path class="st15" d="M-1060.6,260.5v-12.3v-12.3v-12.3v-12.3c0-5-1.2-9.8-3.3-14.1c-2.1-4.3-5.1-8.2-8.9-11.5
			c-3.8-3.3-8.2-5.9-13.2-7.8c-5-1.8-10.4-2.9-16.2-2.9h-14.1v0.3v-10h-28.1v10V175h-14.1c-5.7,0-11.2,1-16.2,2.9
			c-5,1.8-9.4,4.5-13.2,7.8c-3.8,3.3-6.8,7.2-8.9,11.5c-2.1,4.3-3.3,9.1-3.3,14.1v12.3v12.3v12.3v12.3H-1060.6z"/>
		<polyline class="st15" points="-1116.2,175.5 -1116.2,175.8 -1116.2,165.8 -1144.3,165.8 -1144.3,175.8 -1144.3,175.5 		"/>
		<path class="st15" d="M-1084.7,109.4c0,32.8-20.3,59.4-45.3,59.4s-45.3-26.6-45.3-59.4c0-32.8,20.3-59.4,45.3-59.4
			S-1084.7,76.6-1084.7,109.4z"/>
		<path class="st15" d="M-1167.8,188.9c0-65.7,20.5-119,45.8-119l0.4,1c0,20.6,19.7,24.5,43.5,24.5c0,0-7.3-30.6-12.9-37.6
			c-5.6-6.9-12.1-12.3-19.2-15.8c-7.1-3.6-14.9-5.4-22.8-5.4s-15.3,1.8-21.9,5.4c-6.6,3.6-12.5,8.9-17.3,15.8
			c-4.9,6.9-8.7,15.5-11.4,25.6s-4.1,21.7-4.1,34.6s0.5,24.1,1.8,33.5c1.3,9.4,3.3,17,6.3,23s7,10.4,12.3,13.3"/>
		<path class="st13" d="M-1081.9,80.3c0,0-7-22.7-12.3-27.9c-5.3-5.2-11.5-9.1-18.3-11.8c-6.8-2.7-14.2-4-21.7-4
			c-7.6,0-14.6,1.4-20.9,4c-6.3,2.7-11.9,6.6-16.5,11.8c-4.6,5.2-8.3,11.5-10.8,19c-2.5,7.5-3.9,16.1-3.9,25.7"/>
		<path class="st13" d="M-1179.6,92.8c0.3,1.5-12.7,5.7-29.2,9.3c-16.4,3.6-30,5.3-30.4,3.7c-0.3-1.5,12.7-5.7,29.2-9.3
			C-1193.5,92.9-1179.9,91.3-1179.6,92.8z"/>
		<path class="st13" d="M-1179.4,93c-0.3,1.5-13.9,0.4-30.5-2.6c-16.6-3-29.8-6.6-29.5-8.1c0.3-1.5,13.9-0.4,30.5,2.6
			C-1192.3,87.8-1179.1,91.5-1179.4,93z"/>
		<pattern  id="SVGID_3_" xlink:href="#New_Pattern_Swatch_7" patternTransform="matrix(1 0 0 1 0.25 -27.8389)">
		</pattern>
		<path class="st16" d="M-1144,176.2c0,6.1,6.3,11.1,14,11.1s14-5,14-11.1l0.1-0.4h14.1c5.7,0,11.2,1,16.2,2.9
			c5,1.8,9.4,4.5,13.2,7.8c3.8,3.3,6.8,7.2,8.9,11.5c2.1,4.3,3.3,9.1,3.3,14.1v12.3v12.3v12.3v12.3h-139.2v-12.3v-12.3v-12.3v-12.3
			c0-5,1.2-9.8,3.3-14.1c2.1-4.3,5.1-8.2,8.9-11.5c3.8-3.3,8.2-5.9,13.2-7.8c5-1.8,10.4-2.9,16.2-2.9h14.1"/>
		<circle class="st13" cx="-1189.6" cy="93" r="7"/>
		<polygon class="st15" points="-1144.9,208.9 -1144.9,208.9 -1144.9,208.9 -1144.9,208.9 		"/>
		<line class="st11" x1="-1147.6" y1="175.8" x2="-1143.4" y2="175.8"/>
		<rect x="-1201.2" y="259.5" class="st2" width="142.2" height="3.9"/>
		<g>
			<circle class="st7" cx="-1146.1" cy="110.4" r="5"/>
			<circle class="st7" cx="-1113.9" cy="110.4" r="5"/>
		</g>
		<g>
			<path class="st2" d="M-1128.5,57.9l1.6-1.3c0.1,0.1,0.1,0.3,0.2,0.4c0.6,0.7,1.7,0.8,2.4,0.2c0.7-0.6,0.8-1.7,0.2-2.4
				c-0.3-0.4-0.8-0.6-1.3-0.6h0c0.1-0.5,0-1-0.4-1.4c-0.6-0.7-1.7-0.8-2.4-0.2c-0.7,0.6-0.8,1.7-0.2,2.4c0.1,0.1,0.2,0.2,0.3,0.3
				l-1.6,1.3C-1129.2,57-1128.9,57.4-1128.5,57.9z"/>
			<path class="st2" d="M-1122.4,65.8c-0.9-0.3-1.9,0.1-2.2,1c-0.1,0.1-0.1,0.3-0.1,0.4l-2.4-0.9c-0.2,0.6-0.4,1.1-0.6,1.6l2.4,0.9
				c-0.1,0.1-0.2,0.2-0.2,0.4c-0.3,0.9,0.1,1.9,1,2.2c0.9,0.3,1.9-0.1,2.2-1c0.2-0.5,0.1-1-0.1-1.4l0,0c0.4-0.2,0.8-0.5,1-1
				C-1121.1,67.1-1121.5,66.1-1122.4,65.8z"/>
			<path class="st2" d="M-1148.2,58c0.3-0.9-0.1-1.9-1-2.2c-0.9-0.3-1.9,0.1-2.2,1c-0.2,0.5-0.1,1,0.1,1.4c-0.4,0.2-0.8,0.5-1,1
				c-0.3,0.9,0.1,1.9,1,2.2c0.9,0.3,1.9-0.1,2.2-1c0.1-0.1,0.1-0.3,0.1-0.4l2.4,0.9c0.2-0.6,0.4-1.1,0.6-1.6l-2.4-0.9
				C-1148.3,58.3-1148.2,58.1-1148.2,58z"/>
			<path class="st2" d="M-1145.2,69.3l-2.4,2c-0.1-0.1-0.1-0.3-0.2-0.4c-0.6-0.7-1.7-0.8-2.4-0.2c-0.7,0.6-0.8,1.7-0.2,2.4
				c0.3,0.4,0.8,0.6,1.3,0.6c-0.1,0.5,0,1,0.4,1.4c0.6,0.7,1.7,0.8,2.4,0.2c0.7-0.6,0.8-1.7,0.2-2.4c-0.1-0.1-0.2-0.2-0.3-0.3l2.4-2
				C-1144.5,70.3-1144.8,69.8-1145.2,69.3z"/>
			<path class="st2" d="M-1138,56.7c-4.1,0.7-6.8,4.5-6.2,8.6c0.3,1.5,1,2.9,2,3.9l1.9-0.3l0.4,2.3l8.4-1.4l-0.4-2.3l1.9-0.3
				c0.6-1.3,0.8-2.8,0.6-4.4C-1130,58.8-1133.9,56-1138,56.7z M-1139.4,64.5c-0.8,0.1-1.6-0.4-1.7-1.2c-0.1-0.8,0.4-1.6,1.2-1.7
				c0.8-0.1,1.6,0.4,1.7,1.2C-1138,63.6-1138.5,64.4-1139.4,64.5z M-1137.2,67.6l0.7-2.4l1.4,2L-1137.2,67.6z M-1134.2,63.7
				c-0.8,0.1-1.6-0.4-1.7-1.2c-0.1-0.8,0.4-1.6,1.2-1.7c0.8-0.1,1.6,0.4,1.7,1.2C-1132.8,62.8-1133.4,63.5-1134.2,63.7z"/>
		</g>
		<path class="st15" d="M-1124.5,141.2c0,2.5-2.5,4.5-5.5,4.5s-5.5-2-5.5-4.5"/>
		<path class="st11" d="M-1085.7,103.6L-1085.7,103.6c4.2,0,7.7,3.4,7.7,7.7v2.3c0,4.2-3.4,7.7-7.7,7.7"/>
		<path class="st11" d="M-1083.9,121.5c0,3.5,0.9,6.3,2,6.3s2-2.8,2-6.3c0-3.5-0.9-6.3-2-6.3"/>
		<line class="st11" x1="-1088.1" y1="198.6" x2="-1088.1" y2="258.8"/>
		<line class="st11" x1="-1172.4" y1="198.6" x2="-1172.4" y2="258.8"/>
	</g>
	<path class="st11" d="M-1107.7,175.9c0,17.7-10.1,32.1-22.5,32.1s-22.5-14.4-22.5-32.1"/>
	<circle class="st7" cx="-1129.9" cy="208" r="3.5"/>
	<circle class="st7" cx="-1118.7" cy="203" r="3"/>
	<circle class="st7" cx="-1110.7" cy="193.5" r="3"/>
	<circle class="st7" cx="-1141.5" cy="203.6" r="3"/>
	<circle class="st7" cx="-1148.6" cy="193.6" r="3"/>
	<circle class="st7" cx="-1107.7" cy="181.2" r="3"/>
	<circle class="st7" cx="-1152.6" cy="181.2" r="3"/>
	<g>
		<g>
			<path class="st11" d="M-1119.6,242.8c-1.4,4-5.1,6.8-9.4,6.8c-4.3,0-8-2.9-9.4-6.9"/>
			<g>
				<polygon class="st7" points="-1122.2,244 -1119.8,243.5 -1117.8,244.8 -1119,239.2 				"/>
			</g>
			<g>
				<polygon class="st7" points="-1135.8,244 -1138.2,243.5 -1140.2,244.8 -1139,239.2 				"/>
			</g>
		</g>
	</g>
	<line class="st11" x1="-1129" y1="229.1" x2="-1129" y2="249.1"/>
	<circle class="st11" cx="-1129" cy="227.5" r="2"/>
	<line class="st11" x1="-1135" y1="232.9" x2="-1123" y2="232.9"/>
	<rect x="-1462.8" y="106.5" class="st2" width="31" height="6.1"/>
	<path class="st15" d="M-1432.8,105.5l-30.7,0.2 M-1432.7,113.5l-30.7,0.2"/>
	<g>
		
			<rect x="-1432.5" y="99.5" transform="matrix(1 -5.275190e-03 5.275190e-03 1 -0.5972 -7.5027)" class="st15" width="20" height="20"/>
		
			<rect x="-1427.5" y="104.5" transform="matrix(1 -5.270454e-03 5.270454e-03 1 -0.5966 -7.4959)" class="st7" width="10" height="10"/>
	</g>
	<rect x="-1412" y="105.4" class="st2" width="51.1" height="7.2"/>
	<g>
		<line class="st15" x1="-1360.9" y1="105.1" x2="-1413.4" y2="105.4"/>
		<line class="st15" x1="-1360.9" y1="113.1" x2="-1413.3" y2="113.4"/>
	</g>
	<g>
		<path class="st11" d="M-1085.2-231.6L-1085.2-231.6c4.2,0,7.7,3.4,7.7,7.7v2.3c0,4.2-3.4,7.7-7.7,7.7"/>
		<g>
			<path class="st8" d="M-1172.6-77.1h85.3v-76.7c-11.7-8.9-26.3-14.1-42.1-14.1c-16.3,0-31.2,5.6-43.1,14.9V-77.1z"/>
			<polyline class="st15" points="-1138.9,-153.4 -1130,-127.3 -1121.1,-153.4 			"/>
			<g>
				<path class="st11" d="M-1172.6-153.6v76 M-1087.4-153.6v76"/>
			</g>
			<path class="st7" d="M-1129-173.7c1.1,0,2,0.5,2,1.1v7.7c0,0.6-0.9,1.1-2,1.1l0,0c-1.1,0-2-0.5-2-1.1v-7.7
				C-1131-173.2-1130.1-173.7-1129-173.7L-1129-173.7z"/>
			<path class="st11" d="M-1060-78.1v-20v-0.8c0-38.7-31.3-70-70-70s-70,31.3-70,70v0.8v20"/>
			<line class="st11" x1="-1130" y1="-128.5" x2="-1130" y2="-78.1"/>
			<polygon class="st15" points="-1101.5,-165.8 -1130.8,-155.1 -1158.5,-163.7 -1145.3,-127.3 -1130.7,-153.4 -1116.1,-127.3 			
				"/>
			<path class="st15" d="M-1173.3-247.7l-1.7,45c0,27,20.1,48.9,45,48.9c24.9,0,45-21.9,45-48.9l-1.7-45H-1173.3z"/>
			<line class="st11" x1="-1111.7" y1="-216.6" x2="-1085.2" y2="-216.6"/>
			<line class="st11" x1="-1131" y1="-247.7" x2="-1113.9" y2="-217"/>
			<path class="st11" d="M-1174.5-214L-1174.5-214c-4.2,0-7.7-3.4-7.7-7.7v-2.3c0-4.2,3.4-7.7,7.7-7.7"/>
			<g>
				<circle class="st7" cx="-1113.7" cy="-216.6" r="11"/>
				<g>
					<circle class="st7" cx="-1146.1" cy="-217" r="5"/>
					<circle class="st7" cx="-1113.9" cy="-217" r="5"/>
				</g>
				<path class="st7" d="M-1121.3-184.5c0,1.1-0.9,2-2,2h-13.5c-1.1,0-2-0.9-2-2l0,0c0-1.1,0.9-2,2-2h13.5
					C-1122.1-186.5-1121.3-185.6-1121.3-184.5L-1121.3-184.5z"/>
			</g>
			<path class="st7" d="M-1063.8-255.8h-17.2c0-19.4-21.9-35.1-49-35.1s-49,15.7-49,35.1h-17.2c-4.9,0-8.8,4-8.8,8.8s4,8.8,8.8,8.8
				h132.3c4.9,0,8.8-4,8.8-8.8S-1059-255.8-1063.8-255.8z"/>
			<g>
				<path class="st2" d="M-1118.7-269.8l2.1-1.2c0,0.2,0.1,0.3,0.2,0.5c0.6,1,1.8,1.3,2.8,0.8c1-0.6,1.3-1.8,0.8-2.8
					c-0.3-0.5-0.8-0.9-1.4-1l0,0c0.2-0.5,0.2-1.2-0.2-1.7c-0.6-1-1.8-1.3-2.8-0.8c-1,0.6-1.3,1.8-0.8,2.8c0.1,0.2,0.2,0.3,0.3,0.4
					l-2.1,1.2C-1119.4-271.1-1119-270.5-1118.7-269.8z"/>
				<path class="st2" d="M-1113-259.2c-1-0.6-2.2-0.2-2.8,0.8c-0.1,0.2-0.2,0.3-0.2,0.5l-2.7-1.6c-0.3,0.6-0.6,1.2-1,1.8l2.7,1.6
					c-0.1,0.1-0.2,0.3-0.3,0.4c-0.6,1-0.2,2.2,0.8,2.8c1,0.6,2.2,0.2,2.8-0.8c0.3-0.5,0.3-1.2,0.2-1.7h0c0.6-0.1,1.1-0.4,1.4-1
					C-1111.7-257.4-1112-258.7-1113-259.2z"/>
				<path class="st2" d="M-1142-273.6c0.6-1,0.2-2.2-0.8-2.8c-1-0.6-2.2-0.2-2.8,0.8c-0.3,0.5-0.3,1.2-0.2,1.7
					c-0.6,0.1-1.1,0.4-1.4,1c-0.6,1-0.2,2.2,0.8,2.8c1,0.6,2.2,0.2,2.8-0.8c0.1-0.2,0.1-0.3,0.2-0.5l2.7,1.6c0.3-0.6,0.6-1.2,1-1.8
					l-2.7-1.6C-1142.2-273.3-1142.1-273.4-1142-273.6z"/>
				<path class="st2" d="M-1140.7-259.5l-3.3,1.9c0-0.2-0.1-0.3-0.2-0.5c-0.6-1-1.8-1.3-2.8-0.8c-1,0.6-1.3,1.8-0.8,2.8
					c0.3,0.5,0.8,0.9,1.4,1c-0.2,0.5-0.2,1.2,0.2,1.7c0.6,1,1.8,1.3,2.8,0.8c1-0.6,1.3-1.8,0.8-2.8c-0.1-0.2-0.2-0.3-0.3-0.4
					l3.3-1.9C-1140-258.3-1140.4-258.9-1140.7-259.5z"/>
				<path class="st2" d="M-1129.7-273.1c-5,0-9,4-9,9c0,1.9,0.6,3.6,1.5,5h2.3v2.8h10.2v-2.8h2.3c1-1.4,1.6-3.2,1.6-5
					C-1120.7-269.1-1124.7-273.1-1129.7-273.1z M-1132.9-264.1c-1,0-1.8-0.8-1.8-1.8c0-1,0.8-1.8,1.8-1.8s1.8,0.8,1.8,1.8
					C-1131.1-264.9-1131.9-264.1-1132.9-264.1z M-1131-260l1.2-2.7l1.2,2.7H-1131z M-1126.6-264.1c-1,0-1.8-0.8-1.8-1.8
					c0-1,0.8-1.8,1.8-1.8c1,0,1.8,0.8,1.8,1.8C-1124.8-264.9-1125.6-264.1-1126.6-264.1z"/>
			</g>
			
				<rect x="-1167.9" y="-91.1" transform="matrix(0.6649 -0.747 0.747 0.6649 -319.357 -887.9625)" class="st2" width="37.3" height="6.1"/>
			<path class="st15" d="M-1140.6-103.9l-24.1,26.9 M-1134.6-98.7l-20.3,23.1"/>
			<g>
				
					<rect x="-1140.8" y="-118.9" transform="matrix(0.6609 -0.7505 0.7505 0.6609 -301.6936 -885.5939)" class="st15" width="20" height="20"/>
				
					<rect x="-1135.8" y="-113.9" transform="matrix(0.6609 -0.7505 0.7505 0.6609 -301.6969 -885.5973)" class="st7" width="10" height="10"/>
			</g>
			<polygon class="st2" points="-1087.4,-153.7 -1121.5,-114.7 -1126.9,-119.5 -1092.9,-157.7 			"/>
			<g>
				<line class="st15" x1="-1093.1" y1="-157.8" x2="-1127.8" y2="-118.5"/>
				<line class="st15" x1="-1087.1" y1="-152.5" x2="-1121.8" y2="-113.2"/>
			</g>
		</g>
	</g>
	<path class="st17" d="M660-240.4c6.2-2.6,12.2-5.9,18.5-7.8c18.8-5.8,37.7-10.9,56.5-16.8c10-3.2,19.7-7.4,29.6-11
		c2.2-0.8,4.9-1.5,7.1-1.1c12.6,2.4,25.1,2,37.6-0.4c1.4-0.3,3-0.4,4.2,0.1c25,11.2,51.8,17.1,77.5,26c9,3.1,17.7,7.1,26.4,10.9
		c1.2,0.5,2.6,2.6,2.4,3.7c-3,17-8.6,32.9-19.6,46.5c-0.5,0.6-0.8,1.2-1.4,2c-11.7-6-23.4-10.1-37.1-10.5c0,42.3,0,84.3,0,126.4
		c-48,9.6-95.1,6.8-142.7-0.3c0-41.8,0-83.5,0-125.6c-13.9-0.3-25.5,5.4-37.6,10.2c-6.8-8.5-11.5-18.1-15.1-28.2
		c-2.4-6.7-4.3-13.6-6.4-20.5C660-238,660-239.2,660-240.4z M758.8-269c-12.5,3.9-24.7,7.7-37,11.5c0.8,3.1,1.6,5.9,2.3,8.7
		c3.3,12.7,4.7,25.4,0.7,38.2c-0.9,3.1-2.8,6.1-2.8,9.1c0,38.8,0.3,77.6,0.5,116.4c0,1.1,0.2,2.2,0.3,3.3
		c36.5,8.4,106,8.2,135.3-0.5c0.1-1.1,0.2-2.2,0.2-3.4c0.3-37.6,0.6-75.2,0.7-112.9c0-2.4-0.7-4.9-1.6-7.2
		c-3.5-8.9-5.1-18.1-3.6-27.6c1.3-8.2,3.1-16.3,4.8-24.7c-12.4-4.1-24.8-8.2-37.3-12.3c-6.4,14.5-15.5,25.4-32.9,24.7
		C773.2-246.1,763.9-255.1,758.8-269z M719.9-257.4c-3.2,0.8-5.9,1.3-8.5,2.1c-13.3,4.5-26.6,9-39.8,13.7c-1.1,0.4-2.6,2.6-2.4,3.6
		c3.2,14.3,8.3,27.7,17.3,39.5c2,2.6,3.6,3.1,6.9,2.2c7.8-2.2,15.9-3.6,23.8-5.5c1.4-0.3,3-1.7,3.6-3
		C729-222.2,725.4-239.6,719.9-257.4z M892.3-196.6c9.8-11.3,15.6-25.7,19-41.2c0.2-0.8-1.1-2.6-2.1-3c-5.6-2.5-11.3-4.9-17.1-6.9
		c-10.2-3.5-20.6-6.6-31.3-10c-1.1,4.1-2.2,7.6-3.1,11.1c-3.5,14-4.4,27.8,1.8,41.3c0.6,1.4,2.5,2.7,4,3.1
		C872.9-200.2,882.2-198.5,892.3-196.6z M722.7-75.4c8.3,1,16.1,1.9,24,2.8c36.1,4.4,72,4.4,107.9-1.8c3.8-0.7,4.2-2.2,3.2-5.9
		C813-70.7,768-73,723.1-79.6c-0.1,0-0.2,0.2-0.4,0.4C722.7-78.1,722.7-77,722.7-75.4z M767.2-273.3c-7.6,2.4-7.9,3-4.3,9.6
		c1,1.8,2,3.6,3.3,5.2c8.1,9.7,18.4,13.4,30.7,10.6c10.5-2.3,21-13.8,22.4-23.8c-1.7-0.7-3.4-1.4-5.2-2.1
		c-4.4,14.6-11.7,21-23.3,20.5C778-253.9,769.8-260.7,767.2-273.3z M810-266.9c-6.9,0.7-13.2,1.8-19.4,1.9
		c-6.4,0.1-12.7-0.7-19.3-1.2c4.4,8.4,12,11.3,20.8,11.3C800.3-254.9,806.2-259,810-266.9z M769.3-273.7c0.3,4.7,0.3,4.7,4.2,5.6
		c11.2,2.4,22.4,1.6,33.6-0.3c4.1-0.7,5.2-2.3,4.6-5.9c-7.2,0.7-14.2,1.9-21.1,2C783.5-272.2,776.6-273.2,769.3-273.7z M914.3-239.6
		c-3.1,8.8-5.1,16.7-8.4,24c-3.3,7.3-7.9,14-12,21.1c0.9,0.5,2.3,1.1,3.9,1.9c0.8-0.9,1.5-1.6,2.1-2.4c9-12,13.8-25.7,16.5-40.3
		C916.6-236.3,915.2-237.7,914.3-239.6z M667.2-239.1c-0.6-0.1-1.2-0.3-1.8-0.4c-0.4,1.4-1.4,3-1.1,4.2c1.8,6.9,3.5,14,6.2,20.5
		c3.2,7.8,7.4,15.1,11.3,22.8c2.5-1.1,4-1.7,5.9-2.5C676.6-207.7,670.9-222.9,667.2-239.1z"/>
	<g>
		<path class="st11" d="M806.5-186.6L806.5-186.6c1.4,0,2.6,1.1,2.6,2.6v0.8c0,1.4-1.1,2.6-2.6,2.6"/>
		<g>
			<path class="st8" d="M777.4-135.1h28.4v-25.6c-3.9-3-8.8-4.7-14-4.7c-5.4,0-10.4,1.9-14.4,5V-135.1z"/>
			<polyline class="st15" points="788.6,-160.5 791.6,-151.9 794.6,-160.5 			"/>
			<g>
				<path class="st11" d="M777.4-160.6v25.3 M805.8-160.6v25.3"/>
			</g>
			<path class="st7" d="M791.9-167.3c0.4,0,0.7,0.2,0.7,0.4v2.6c0,0.2-0.3,0.4-0.7,0.4l0,0c-0.4,0-0.7-0.2-0.7-0.4v-2.6
				C791.3-167.2,791.6-167.3,791.9-167.3L791.9-167.3z"/>
			<path class="st11" d="M814.9-135.4v-6.7v-0.3c0-12.9-10.4-23.3-23.3-23.3c-12.9,0-23.3,10.4-23.3,23.3v0.3v6.7"/>
			<line class="st11" x1="791.6" y1="-152.3" x2="791.6" y2="-135.4"/>
			<polygon class="st15" points="801.1,-164.7 791.3,-161.1 782.1,-164 786.5,-151.9 791.4,-160.6 796.2,-151.9 			"/>
			<path class="st15" d="M777.2-192l-0.6,15c0,9,6.7,16.3,15,16.3c8.3,0,15-7.3,15-16.3l-0.6-15H777.2z"/>
			<line class="st11" x1="797.7" y1="-181.6" x2="806.5" y2="-181.6"/>
			<line class="st11" x1="791.3" y1="-192" x2="797" y2="-181.7"/>
			<path class="st11" d="M776.8-180.7L776.8-180.7c-1.4,0-2.6-1.1-2.6-2.6v-0.8c0-1.4,1.1-2.6,2.6-2.6"/>
			<g>
				<path class="st7" d="M800.7-181.6c0,2-1.6,3.7-3.7,3.7c-2,0-3.7-1.6-3.7-3.7c0-2,1.6-3.7,3.7-3.7
					C799.1-185.3,800.7-183.7,800.7-181.6z"/>
				<g>
					<path class="st7" d="M787.9-181.7c0,0.9-0.7,1.7-1.7,1.7c-0.9,0-1.7-0.7-1.7-1.7s0.7-1.7,1.7-1.7
						C787.2-183.4,787.9-182.7,787.9-181.7z"/>
					<path class="st7" d="M798.6-181.7c0,0.9-0.7,1.7-1.7,1.7s-1.7-0.7-1.7-1.7s0.7-1.7,1.7-1.7S798.6-182.7,798.6-181.7z"/>
				</g>
				<path class="st7" d="M794.9-170.9c0,0.4-0.3,0.7-0.7,0.7h-4.5c-0.4,0-0.7-0.3-0.7-0.7l0,0c0-0.4,0.3-0.7,0.7-0.7h4.5
					C794.6-171.6,794.9-171.3,794.9-170.9L794.9-170.9z"/>
			</g>
			<path class="st7" d="M792-167c0.4,0,0.7,0.2,0.7,0.4v2.6c0,0.2-0.3,0.4-0.7,0.4l0,0c-0.4,0-0.7-0.2-0.7-0.4v-2.6
				C791.3-166.9,791.6-167,792-167L792-167z"/>
			<path class="st7" d="M813.7-195h-5.7c0-6.5-7.3-11.7-16.3-11.7c-9,0-16.3,5.2-16.3,11.7h-5.7c-1.6,0-2.9,1.3-2.9,2.9
				c0,1.6,1.3,2.9,2.9,2.9h44.1c1.6,0,2.9-1.3,2.9-2.9C816.6-193.7,815.3-195,813.7-195z"/>
			<g>
				<path class="st2" d="M795.4-199.7l0.7-0.4c0,0.1,0,0.1,0.1,0.2c0.2,0.3,0.6,0.4,0.9,0.3c0.3-0.2,0.4-0.6,0.3-0.9
					c-0.1-0.2-0.3-0.3-0.5-0.3h0c0.1-0.2,0.1-0.4-0.1-0.6c-0.2-0.3-0.6-0.4-0.9-0.3c-0.3,0.2-0.4,0.6-0.3,0.9c0,0.1,0.1,0.1,0.1,0.1
					l-0.7,0.4C795.1-200.1,795.3-199.9,795.4-199.7z"/>
				<path class="st2" d="M797.3-196.2c-0.3-0.2-0.7-0.1-0.9,0.3c0,0.1,0,0.1-0.1,0.2l-0.9-0.5c-0.1,0.2-0.2,0.4-0.3,0.6l0.9,0.5
					c0,0-0.1,0.1-0.1,0.1c-0.2,0.3-0.1,0.7,0.3,0.9c0.3,0.2,0.7,0.1,0.9-0.3c0.1-0.2,0.1-0.4,0.1-0.6h0c0.2,0,0.4-0.1,0.5-0.3
					C797.7-195.6,797.6-196,797.3-196.2z"/>
				<path class="st2" d="M787.6-201c0.2-0.3,0.1-0.7-0.2-0.9c-0.3-0.2-0.8-0.1-0.9,0.3c-0.1,0.2-0.1,0.4-0.1,0.6
					c-0.2,0-0.4,0.1-0.5,0.3c-0.2,0.3-0.1,0.7,0.3,0.9c0.3,0.2,0.7,0.1,0.9-0.3c0-0.1,0.1-0.1,0.1-0.2l0.9,0.5
					c0.1-0.2,0.2-0.4,0.3-0.6l-0.9-0.5C787.5-200.9,787.6-200.9,787.6-201z"/>
				<path class="st2" d="M788-196.3l-1.1,0.6c0-0.1,0-0.1-0.1-0.2c-0.2-0.3-0.6-0.4-0.9-0.3c-0.3,0.2-0.4,0.6-0.3,0.9
					c0.1,0.2,0.3,0.3,0.5,0.3c-0.1,0.2,0,0.4,0.1,0.6c0.2,0.3,0.6,0.4,0.9,0.3c0.3-0.2,0.4-0.6,0.3-0.9c0-0.1-0.1-0.1-0.1-0.1
					l1.1-0.6C788.3-195.9,788.1-196.1,788-196.3z"/>
				<path class="st2" d="M791.7-200.8c-1.7,0-3,1.3-3,3c0,0.6,0.2,1.2,0.5,1.7h0.8v0.9h3.4v-0.9h0.8c0.3-0.5,0.5-1.1,0.5-1.7
					C794.7-199.4,793.4-200.8,791.7-200.8z M790.7-197.8c-0.3,0-0.6-0.3-0.6-0.6c0-0.3,0.3-0.6,0.6-0.6c0.3,0,0.6,0.3,0.6,0.6
					C791.3-198.1,791-197.8,790.7-197.8z M791.3-196.4l0.4-0.9l0.4,0.9H791.3z M792.8-197.8c-0.3,0-0.6-0.3-0.6-0.6
					c0-0.3,0.3-0.6,0.6-0.6c0.3,0,0.6,0.3,0.6,0.6C793.4-198.1,793.1-197.8,792.8-197.8z"/>
			</g>
			
				<rect x="779" y="-139.8" transform="matrix(0.6649 -0.7469 0.7469 0.6649 366.7812 539.9764)" class="st2" width="12.4" height="2"/>
			<path class="st15" d="M788.1-144.1l-8,9 M790.1-142.3l-6.8,7.7"/>
			<g>
				
					<rect x="788" y="-149.1" transform="matrix(0.6609 -0.7504 0.7504 0.6609 377.6794 544.4297)" class="st15" width="6.7" height="6.7"/>
				
					<rect x="789.7" y="-147.4" transform="matrix(0.6609 -0.7505 0.7505 0.6609 377.7545 544.4754)" class="st7" width="3.3" height="3.3"/>
			</g>
			<polygon class="st2" points="805.8,-160.7 794.5,-147.7 792.7,-149.3 804,-162 			"/>
			<g>
				<line class="st15" x1="803.9" y1="-162" x2="792.4" y2="-148.9"/>
				<line class="st15" x1="805.9" y1="-160.3" x2="794.4" y2="-147.2"/>
			</g>
		</g>
	</g>
	<text transform="matrix(1 0 0 1 765.9966 -219.7285)" class="st18" style="font-family:'Courier-Bold'; font-size:16px;">think</text>
	<text transform="matrix(1 0 0 1 753.9941 -111)" class="st19" style="font-family:'Courier-Bold'; font-size:12px;">secret map</text>
	<path class="st17" d="M980-248.4c6.2-2.6,12.2-5.9,18.5-7.8c18.8-5.8,37.7-10.9,56.5-16.8c10-3.2,19.7-7.4,29.6-11
		c2.2-0.8,4.9-1.5,7.1-1.1c12.6,2.4,25.1,2,37.6-0.4c1.4-0.3,3-0.4,4.2,0.1c25,11.2,51.8,17.1,77.5,26c9,3.1,17.7,7.1,26.4,10.9
		c1.2,0.5,2.6,2.6,2.4,3.7c-3,17-8.6,32.9-19.6,46.5c-0.5,0.6-0.8,1.2-1.4,2c-11.7-6-23.4-10.1-37.1-10.5c0,42.3,0,84.3,0,126.4
		c-48,9.6-95.1,6.8-142.7-0.3c0-41.8,0-83.5,0-125.6c-13.9-0.3-25.5,5.4-37.6,10.2c-6.8-8.5-11.5-18.1-15.1-28.2
		c-2.4-6.7-4.3-13.6-6.4-20.5C980-246,980-247.2,980-248.4z M1078.8-277.1c-12.5,3.9-24.7,7.7-37,11.5c0.8,3.1,1.6,5.9,2.3,8.7
		c3.3,12.7,4.7,25.4,0.7,38.2c-0.9,3.1-2.8,6.1-2.8,9.1c0,38.8,0.3,77.6,0.5,116.4c0,1.1,0.2,2.2,0.3,3.3
		c36.5,8.4,106,8.2,135.3-0.5c0.1-1.1,0.2-2.2,0.2-3.4c0.3-37.6,0.6-75.2,0.7-112.9c0-2.4-0.7-4.9-1.6-7.2
		c-3.5-8.9-5.1-18.1-3.6-27.6c1.3-8.2,3.1-16.3,4.8-24.7c-12.4-4.1-24.8-8.2-37.3-12.3c-6.4,14.5-15.5,25.4-32.9,24.7
		C1093.2-254.2,1083.9-263.1,1078.8-277.1z M1039.9-265.5c-3.2,0.8-5.9,1.3-8.5,2.1c-13.3,4.5-26.6,9-39.8,13.7
		c-1.1,0.4-2.6,2.6-2.4,3.6c3.2,14.3,8.3,27.7,17.3,39.5c2,2.6,3.6,3.1,6.9,2.2c7.8-2.2,15.9-3.6,23.8-5.5c1.4-0.3,3-1.7,3.6-3
		C1049-230.3,1045.4-247.6,1039.9-265.5z M1212.3-204.6c9.8-11.3,15.6-25.7,19-41.2c0.2-0.8-1.1-2.6-2.1-3
		c-5.6-2.5-11.3-4.9-17.1-6.9c-10.2-3.5-20.6-6.6-31.3-10c-1.1,4.1-2.2,7.6-3.1,11.1c-3.5,14-4.4,27.8,1.8,41.3
		c0.6,1.4,2.5,2.7,4,3.1C1192.9-208.2,1202.2-206.6,1212.3-204.6z M1042.7-83.4c8.3,1,16.1,1.9,24,2.8c36.1,4.4,72,4.4,107.9-1.8
		c3.8-0.7,4.2-2.2,3.2-5.9c-44.8,9.5-89.8,7.2-134.7,0.6c-0.1,0-0.2,0.2-0.4,0.4C1042.7-86.2,1042.7-85,1042.7-83.4z M1087.2-281.3
		c-7.6,2.4-7.9,3-4.3,9.6c1,1.8,2,3.6,3.3,5.2c8.1,9.7,18.4,13.4,30.7,10.6c10.5-2.3,21-13.8,22.4-23.8c-1.7-0.7-3.4-1.4-5.2-2.1
		c-4.4,14.6-11.7,21-23.3,20.5C1098-261.9,1089.8-268.8,1087.2-281.3z M1130-275c-6.9,0.7-13.2,1.8-19.4,1.9
		c-6.4,0.1-12.7-0.7-19.3-1.2c4.4,8.4,12,11.3,20.8,11.3C1120.3-263,1126.2-267,1130-275z M1089.3-281.7c0.3,4.7,0.3,4.7,4.2,5.6
		c11.2,2.4,22.4,1.6,33.6-0.3c4.1-0.7,5.2-2.3,4.6-5.9c-7.2,0.7-14.2,1.9-21.1,2C1103.5-280.2,1096.6-281.2,1089.3-281.7z
		 M1234.3-247.6c-3.1,8.8-5.1,16.7-8.4,24c-3.3,7.3-7.9,14-12,21.1c0.9,0.5,2.3,1.1,3.9,1.9c0.8-0.9,1.5-1.6,2.1-2.4
		c9-12,13.8-25.7,16.5-40.3C1236.6-244.4,1235.2-245.7,1234.3-247.6z M987.2-247.1c-0.6-0.1-1.2-0.3-1.8-0.4c-0.4,1.4-1.4,3-1.1,4.2
		c1.8,6.9,3.5,14,6.2,20.5c3.2,7.8,7.4,15.1,11.3,22.8c2.5-1.1,4-1.7,5.9-2.5C996.6-215.7,990.9-231,987.2-247.1z"/>
	<text transform="matrix(1 0 0 1 1085.9966 -227.7637)" class="st18" style="font-family:'Courier-Bold'; font-size:16px;">think</text>
	<text transform="matrix(1 0 0 1 1073.9941 -119.0352)" class="st19" style="font-family:'Courier-Bold'; font-size:12px;">secret map</text>
	<g>
		<path class="st11" d="M1129.2-183.3c0,17.2-14.3,19.3-24.8,19.3c-10.5,0-13.2-7.3-13.2-24.5c0-17.2,7.6-27,18.1-27
			S1129.2-200.4,1129.2-183.3z"/>
		<path class="st15" d="M1133.1-141.4v-4.1v-4.1v-4.1v-4.1c0-1.7-0.4-3.2-1.1-4.7c-0.7-1.4-1.7-2.7-2.9-3.8c-1.2-1.1-2.7-2-4.4-2.6
			c-1.6-0.6-3.4-0.9-5.3-0.9h-4.6v0.1v-3.3h-9.3v3.3v-0.1h-4.6c-1.9,0-3.7,0.3-5.3,0.9c-1.6,0.6-3.1,1.5-4.4,2.6
			c-1.2,1.1-2.2,2.4-2.9,3.8c-0.7,1.4-1.1,3-1.1,4.7v4.1v4.1v4.1v4.1H1133.1z"/>
		<polyline class="st15" points="1114.8,-169.5 1114.8,-169.4 1114.8,-172.7 1105.5,-172.7 1105.5,-169.4 1105.5,-169.5 		"/>
		<ellipse class="st15" cx="1110.2" cy="-191.4" rx="15" ry="19.7"/>
		<path class="st15" d="M1097.7-165.1c0-21.7,6.8-39.4,15.1-39.4l0.1,0.3c0,6.8,6.5,8.1,14.4,8.1c0,0-2.4-10.1-4.3-12.4
			c-1.8-2.3-4-4.1-6.4-5.2c-2.4-1.2-4.9-1.8-7.5-1.8s-5.1,0.6-7.3,1.8c-2.2,1.2-4.1,2.9-5.7,5.2c-1.6,2.3-2.9,5.1-3.8,8.5
			c-0.9,3.3-1.3,7.2-1.3,11.5c0,4.3,0.2,8,0.6,11.1c0.4,3.1,1.1,5.6,2.1,7.6c1,2,2.3,3.4,4.1,4.4"/>
		<path class="st13" d="M1126.1-201c0,0-2.3-7.5-4.1-9.2s-3.8-3-6.1-3.9c-2.2-0.9-4.7-1.3-7.2-1.3c-2.5,0-4.8,0.5-6.9,1.3
			c-2.1,0.9-3.9,2.2-5.4,3.9c-1.5,1.7-2.7,3.8-3.6,6.3c-0.8,2.5-1.3,5.3-1.3,8.5"/>
		<path class="st13" d="M1093.8-196.9c0.1,0.5-4.2,1.9-9.6,3.1c-5.4,1.2-9.9,1.7-10,1.2c-0.1-0.5,4.2-1.9,9.6-3.1
			C1089.2-196.8,1093.7-197.4,1093.8-196.9z"/>
		<path class="st13" d="M1093.9-196.8c-0.1,0.5-4.6,0.1-10.1-0.8c-5.5-1-9.8-2.2-9.8-2.7c0.1-0.5,4.6-0.1,10.1,0.8
			C1089.6-198.5,1094-197.3,1093.9-196.8z"/>
		<pattern  id="SVGID_4_" xlink:href="#New_Pattern_Swatch_7" patternTransform="matrix(0.3308 0 0 0.3308 -3034.5237 -4864.0493)">
		</pattern>
		<path class="st20" d="M1105.6-169.3c0,2,2.1,3.7,4.6,3.7s4.6-1.6,4.6-3.7l0-0.1h4.6c1.9,0,3.7,0.3,5.3,0.9
			c1.6,0.6,3.1,1.5,4.4,2.6c1.2,1.1,2.2,2.4,2.9,3.8c0.7,1.4,1.1,3,1.1,4.7v4.1v4.1v4.1v4.1h-46v-4.1v-4.1v-4.1v-4.1
			c0-1.7,0.4-3.2,1.1-4.7c0.7-1.4,1.7-2.7,2.9-3.8c1.2-1.1,2.7-2,4.4-2.6c1.6-0.6,3.4-0.9,5.3-0.9h4.6"/>
		<path class="st13" d="M1092.8-196.8c0,1.3-1,2.3-2.3,2.3c-1.3,0-2.3-1-2.3-2.3c0-1.3,1-2.3,2.3-2.3
			C1091.7-199.1,1092.8-198.1,1092.8-196.8z"/>
		<polygon class="st15" points="1105.3,-158.5 1105.3,-158.5 1105.3,-158.5 1105.3,-158.5 		"/>
		<line class="st11" x1="1104.4" y1="-169.4" x2="1105.8" y2="-169.4"/>
		<rect x="1083.6" y="-142.3" class="st2" width="54.4" height="3.2"/>
		<g>
			<circle class="st7" cx="1104.9" cy="-191.1" r="1.7"/>
			<path class="st7" d="M1117.2-191.1c0,0.9-0.7,1.7-1.7,1.7c-0.9,0-1.7-0.7-1.7-1.7c0-0.9,0.7-1.7,1.7-1.7
				C1116.4-192.7,1117.2-192,1117.2-191.1z"/>
		</g>
		<g>
			<path class="st2" d="M1110.7-208.4l0.5-0.4c0,0,0,0.1,0.1,0.1c0.2,0.2,0.6,0.3,0.8,0.1c0.2-0.2,0.3-0.6,0.1-0.8
				c-0.1-0.1-0.3-0.2-0.4-0.2l0,0c0-0.2,0-0.3-0.1-0.5c-0.2-0.2-0.6-0.3-0.8-0.1c-0.2,0.2-0.3,0.6-0.1,0.8c0,0,0.1,0.1,0.1,0.1
				l-0.5,0.4C1110.4-208.7,1110.6-208.6,1110.7-208.4z"/>
			<path class="st2" d="M1112.7-205.8c-0.3-0.1-0.6,0-0.7,0.3c0,0,0,0.1,0,0.1l-0.8-0.3c-0.1,0.2-0.1,0.4-0.2,0.5l0.8,0.3
				c0,0-0.1,0.1-0.1,0.1c-0.1,0.3,0,0.6,0.3,0.7c0.3,0.1,0.6,0,0.7-0.3c0.1-0.2,0-0.3,0-0.5l0,0c0.1-0.1,0.3-0.2,0.3-0.3
				C1113.1-205.4,1113-205.7,1112.7-205.8z"/>
			<path class="st2" d="M1104.2-208.4c0.1-0.3,0-0.6-0.3-0.7c-0.3-0.1-0.6,0-0.7,0.3c-0.1,0.2,0,0.3,0,0.5c-0.1,0.1-0.3,0.2-0.3,0.3
				c-0.1,0.3,0,0.6,0.3,0.7c0.3,0.1,0.6,0,0.7-0.3c0,0,0-0.1,0-0.1l0.8,0.3c0.1-0.2,0.1-0.4,0.2-0.5l-0.8-0.3
				C1104.1-208.3,1104.2-208.3,1104.2-208.4z"/>
			<path class="st2" d="M1105.2-204.6l-0.8,0.7c0,0,0-0.1-0.1-0.1c-0.2-0.2-0.6-0.3-0.8-0.1c-0.2,0.2-0.3,0.6-0.1,0.8
				c0.1,0.1,0.3,0.2,0.4,0.2c0,0.2,0,0.3,0.1,0.5c0.2,0.2,0.6,0.3,0.8,0.1c0.2-0.2,0.3-0.6,0.1-0.8c0,0-0.1-0.1-0.1-0.1l0.8-0.7
				C1105.4-204.3,1105.3-204.5,1105.2-204.6z"/>
			<path class="st2" d="M1107.5-208.8c-1.4,0.2-2.3,1.5-2,2.9c0.1,0.5,0.3,1,0.7,1.3l0.6-0.1l0.1,0.7l2.8-0.5l-0.1-0.7l0.6-0.1
				c0.2-0.4,0.3-0.9,0.2-1.4C1110.2-208.1,1108.9-209,1107.5-208.8z M1107.1-206.2c-0.3,0-0.5-0.1-0.6-0.4c0-0.3,0.1-0.5,0.4-0.6
				c0.3,0,0.5,0.1,0.6,0.4C1107.5-206.5,1107.4-206.3,1107.1-206.2z M1107.8-205.2l0.2-0.8l0.5,0.7L1107.8-205.2z M1108.8-206.5
				c-0.3,0-0.5-0.1-0.6-0.4c0-0.3,0.1-0.5,0.4-0.6c0.3,0,0.5,0.1,0.6,0.4C1109.3-206.8,1109.1-206.6,1108.8-206.5z"/>
		</g>
		<path class="st15" d="M1112-180.9c0,0.8-0.8,1.5-1.8,1.5s-1.8-0.7-1.8-1.5"/>
		<path class="st11" d="M1124.8-193.3L1124.8-193.3c1.4,0,2.5,1.1,2.5,2.5v0.8c0,1.4-1.1,2.5-2.5,2.5"/>
		<path class="st11" d="M1125.4-187.4c0,1.1,0.3,2.1,0.7,2.1c0.4,0,0.7-0.9,0.7-2.1c0-1.1-0.3-2.1-0.7-2.1"/>
		<line class="st11" x1="1124" y1="-161.9" x2="1124" y2="-142"/>
		<line class="st11" x1="1096.2" y1="-161.9" x2="1096.2" y2="-142"/>
	</g>
	<path class="st11" d="M1117.6-169.4c0,5.9-3.3,10.6-7.4,10.6c-4.1,0-7.4-4.8-7.4-10.6"/>
	<path class="st7" d="M1111.4-158.8c0,0.6-0.5,1.2-1.2,1.2c-0.6,0-1.2-0.5-1.2-1.2c0-0.6,0.5-1.2,1.2-1.2
		C1110.8-159.9,1111.4-159.4,1111.4-158.8z"/>
	<circle class="st7" cx="1113.9" cy="-160.4" r="1"/>
	<path class="st7" d="M1117.6-163.6c0,0.5-0.4,1-1,1s-1-0.4-1-1c0-0.5,0.4-1,1-1S1117.6-164.1,1117.6-163.6z"/>
	<circle class="st7" cx="1106.4" cy="-160.2" r="1"/>
	<circle class="st7" cx="1104" cy="-163.5" r="1"/>
	<path class="st7" d="M1118.6-167.6c0,0.5-0.4,1-1,1s-1-0.4-1-1c0-0.5,0.4-1,1-1S1118.6-168.2,1118.6-167.6z"/>
	<path class="st7" d="M1103.7-167.6c0,0.5-0.4,1-1,1c-0.5,0-1-0.4-1-1c0-0.5,0.4-1,1-1C1103.3-168.6,1103.7-168.2,1103.7-167.6z"/>
	<g>
		<g>
			<path class="st11" d="M1112-145.4c-0.4,0.2-0.9,0.4-1.5,0.4c-0.5,0-1-0.1-1.5-0.4"/>
			<g>
				<polygon class="st7" points="1108.9,-145.6 1111.2,-145 1112.5,-142.9 1113.8,-148.5 				"/>
			</g>
			<g>
				<polygon class="st7" points="1112.1,-145.6 1109.8,-145 1108.6,-142.9 1107.2,-148.5 				"/>
			</g>
		</g>
	</g>
	<line class="st11" x1="1110.5" y1="-151.8" x2="1110.5" y2="-145.2"/>
	<path class="st11" d="M1111.2-152.3c0,0.4-0.3,0.7-0.7,0.7s-0.7-0.3-0.7-0.7s0.3-0.7,0.7-0.7S1111.2-152.7,1111.2-152.3z"/>
	<line class="st11" x1="1108.5" y1="-150.6" x2="1112.5" y2="-150.6"/>
	<path class="st8" d="M-1166.4-176c3.3,5.4,10.2,13,16.1,16.2c5.9,3.2,12.9,5,20.3,5c7.4,0,14.4-1.8,20.3-5
		c5.9-3.2,12.8-10.7,16.1-16.2l-36.4,12.3L-1166.4-176z"/>
	<path class="st7" d="M-1130-171.7c1.1,0,2,0.5,2,1.1v7.7c0,0.6-0.9,1.1-2,1.1l0,0c-1.1,0-2-0.5-2-1.1v-7.7
		C-1132-171.2-1131.1-171.7-1130-171.7L-1130-171.7z"/>
	<g>
		<g>
			<g>
				<path class="st21" d="M-723.7,191.6c-11,38.7-45.5,66.9-86.3,66.9c-40.8,0-75.3-28.2-86.3-66.9"/>
				<g>
					<polygon class="st7" points="-742.8,201.3 -725.2,197 -709.9,206.7 -720,165 					"/>
				</g>
				<g>
					<polygon class="st7" points="-877.2,201.3 -894.8,197 -910.1,206.7 -900,165 					"/>
				</g>
			</g>
		</g>
		<line class="st21" x1="-810" y1="74.1" x2="-810" y2="254.1"/>
		<circle class="st21" cx="-810" cy="59.5" r="18"/>
		<line class="st21" x1="-864" y1="107.7" x2="-756" y2="107.7"/>
	</g>
	<g>
		<path class="st7" d="M-490,68.9c-45.4,0-82.1,36.8-82.1,82.1c0,45.4,36.8,82.1,82.1,82.1c45.4,0,82.1-36.8,82.1-82.1
			C-407.9,105.6-444.6,68.9-490,68.9z M-473.6,167.4l-65.7,32.9l32.9-65.7l65.7-32.9L-473.6,167.4z"/>
		<path class="st7" d="M-490,36c-63.5,0-115,51.5-115,115s51.5,115,115,115s115-51.5,115-115S-426.5,36-490,36z M-490,257.8
			c-58.9,0-106.8-47.9-106.8-106.8S-548.9,44.2-490,44.2c58.9,0,106.8,47.9,106.8,106.8S-431.1,257.8-490,257.8z"/>
		<circle class="st7" cx="-490" cy="151" r="8.2"/>
	</g>
	<path class="st7" d="M-103.9,96.3c-14.6,0-27.8,5.9-37.5,15.3H-152c-2.7-4.6-7.5-7.7-13.2-7.7c-5.7,0-10.5,3.1-13.2,7.7H-189
		c-9.7-9.5-22.9-15.3-37.5-15.3c-29.6,0-53.7,24-53.7,53.7s24,53.7,53.7,53.7c29.6,0,53.7-24,53.7-53.7h15.3
		c0,29.6,24,53.7,53.7,53.7s53.7-24,53.7-53.7S-74.3,96.3-103.9,96.3z M-226.6,188.3c-21.1,0-38.3-17.2-38.3-38.3
		s17.2-38.3,38.3-38.3c21.1,0,38.3,17.2,38.3,38.3S-205.4,188.3-226.6,188.3z M-103.9,188.3c-21.1,0-38.3-17.2-38.3-38.3
		s17.2-38.3,38.3-38.3c21.1,0,38.3,17.2,38.3,38.3S-82.8,188.3-103.9,188.3z"/>
</g>
</svg>
