<?xml version="1.0" encoding="utf-8"?>
<!-- Generator: Adobe Illustrator 22.0.1, SVG Export Plug-In . SVG Version: 6.00 Build 0)  -->
<svg version="1.1" xmlns="http://www.w3.org/2000/svg" xmlns:xlink="http://www.w3.org/1999/xlink" x="0px" y="0px"
	 viewBox="0 0 300 300" style="enable-background:new 0 0 300 300;" xml:space="preserve">
<style type="text/css">
	.st0{fill:none;}
	.st1{fill:#E6DBD8;stroke:#E6DBD8;stroke-width:2;stroke-miterlimit:10;}
	.st2{fill:#FFFFFF;}
	.st3{fill:#E6DBD8;}
	.st4{fill:none;stroke:#000000;stroke-miterlimit:10;}
	.st5{fill:#FFFFFF;stroke:#000000;stroke-miterlimit:10;}
	.st6{stroke:#000000;stroke-miterlimit:10;}
	.st7{fill:#783938;}
	.st8{fill:#E7DCD9;}
	.st9{fill:#D1D3D4;}
	.st10{fill:#D16277;}
	.st11{fill:none;stroke:#783938;stroke-width:2;stroke-miterlimit:10;}
	.st12{fill:url(#SVGID_1_);stroke:url(#SVGID_2_);stroke-width:2;stroke-miterlimit:10;}
	.st13{fill:#783938;stroke:#783938;stroke-width:2;stroke-miterlimit:10;}
	.st14{fill:#FFFFFF;stroke:#FFFFFF;stroke-width:0.25;}
	.st15{fill:#FFFFFF;stroke:#783938;stroke-width:2;stroke-miterlimit:10;}
	.st16{fill:url(#SVGID_3_);stroke:#783938;stroke-width:2;stroke-miterlimit:10;}
	.st17{fill-rule:evenodd;clip-rule:evenodd;fill:#783938;}
	.st18{fill:#EA3E27;}
	.st19{fill:#EB9687;}
	.st20{fill:url(#SVGID_4_);stroke:#783938;stroke-width:2;stroke-miterlimit:10;}
	.st21{fill:none;stroke:#783938;stroke-width:15;stroke-miterlimit:10;}
</style>
<pattern  x="-1868" y="-180" width="139.9" height="191.3" patternUnits="userSpaceOnUse" id="New_Pattern_Swatch_3" viewBox="0 -191.3 139.9 191.3" style="overflow:visible;">
	<g>
		<rect y="-191.3" class="st0" width="139.9" height="191.3"/>
		<rect x="1" y="-190.3" class="st1" width="137.9" height="9.2"/>
		<rect x="1" y="-172.3" class="st1" width="137.9" height="9.2"/>
		<rect x="1" y="-154.3" class="st1" width="137.9" height="9.2"/>
		<rect x="1" y="-136.3" class="st1" width="137.9" height="9.2"/>
		<rect x="1" y="-118.3" class="st1" width="137.9" height="9.2"/>
		<rect x="1" y="-100.3" class="st1" width="137.9" height="9.2"/>
		<rect x="1" y="-82.3" class="st1" width="137.9" height="9.2"/>
		<rect x="1" y="-64.3" class="st1" width="137.9" height="9.2"/>
		<rect x="1" y="-46.2" class="st1" width="137.9" height="9.2"/>
		<rect x="1" y="-28.2" class="st1" width="137.9" height="9.2"/>
		<rect x="1" y="-10.2" class="st1" width="137.9" height="9.2"/>
	</g>
</pattern>
<pattern  x="-1868" y="-180" width="200" height="170" patternUnits="userSpaceOnUse" id="New_Pattern_Swatch_7" viewBox="0 -170 200 170" style="overflow:visible;">
	<g>
		<rect y="-170" class="st0" width="200" height="170"/>
		<rect y="-170" class="st2" width="200" height="170"/>
		<g>
			<rect x="0.1" y="-170" class="st3" width="199.9" height="9.2"/>
			<rect y="-152.2" class="st3" width="199.9" height="9.2"/>
			<rect y="-134.3" class="st3" width="199.9" height="9.2"/>
			<rect y="-116.4" class="st3" width="199.9" height="9.2"/>
			<rect y="-98.5" class="st3" width="199.9" height="9.2"/>
			<rect y="-80.7" class="st3" width="199.9" height="9.2"/>
			<rect y="-62.8" class="st3" width="199.9" height="9.2"/>
			<rect y="-44.9" class="st3" width="199.9" height="9.2"/>
			<rect y="-27" class="st3" width="199.9" height="9.2"/>
			<rect y="-9.2" class="st3" width="199.9" height="9.2"/>
		</g>
	</g>
</pattern>
<g id="Layer_1">
	<path class="st4" d="M-1537.9,238.1c0-38.7,31.3-70,70-70s70,31.3,70,70"/>
	<line class="st4" x1="-1537.9" y1="238.9" x2="-1537.9" y2="258.9"/>
	<line class="st4" x1="-1397.9" y1="238.9" x2="-1397.9" y2="258.9"/>
	<line class="st4" x1="-1511" y1="183.7" x2="-1511" y2="258.9"/>
	<line class="st4" x1="-1426.7" y1="190.5" x2="-1426.7" y2="260.5"/>
	<path d="M-1468,163.3c1.1,0,2,0.5,2,1.1v7.7c0,0.6-0.9,1.1-2,1.1l0,0c-1.1,0-2-0.5-2-1.1v-7.7C-1470,163.8-1469.1,163.3-1468,163.3
		L-1468,163.3z"/>
	<line class="st4" x1="-1500.2" y1="176.4" x2="-1484.4" y2="210.7"/>
	<line class="st4" x1="-1484.4" y1="210.7" x2="-1469" y2="183.1"/>
	<line class="st4" x1="-1477.7" y1="198.7" x2="-1470" y2="210.7"/>
	<line class="st4" x1="-1462.1" y1="198.7" x2="-1469.9" y2="210.7"/>
	<line class="st4" x1="-1470" y1="210.7" x2="-1470" y2="258.9"/>
	<g>
		
			<rect x="-1478" y="218.4" transform="matrix(0.6755 -0.7373 0.7373 0.6755 -644.7675 -1008.2872)" class="st5" width="20" height="20"/>
		
			<rect x="-1473" y="223.4" transform="matrix(0.6755 -0.7373 0.7373 0.6755 -644.7796 -1008.2953)" class="st6" width="10" height="10"/>
	</g>
	<g>
		<line class="st5" x1="-1429.3" y1="180.3" x2="-1464.7" y2="219"/>
		<line class="st5" x1="-1423.4" y1="185.7" x2="-1458.8" y2="224.4"/>
	</g>
	<g>
		<line class="st5" x1="-1478.5" y1="234" x2="-1498.8" y2="256.1"/>
		<line class="st5" x1="-1472.6" y1="239.4" x2="-1492.9" y2="261.5"/>
	</g>
	<polyline class="st5" points="-1469.5,183.1 -1454,210.7 -1438.2,176.4 	"/>
	<path class="st5" d="M-1512.3,89.2l-1.7,45c0,27,20.1,48.9,45,48.9c24.9,0,45-21.9,45-48.9l-1.7-45H-1512.3z"/>
	<circle class="st6" cx="-1452.7" cy="120.4" r="11"/>
	<line class="st4" x1="-1450.7" y1="120.4" x2="-1424.2" y2="120.4"/>
	<line class="st4" x1="-1469.7" y1="98.4" x2="-1451.7" y2="120.4"/>
	<g>
		<circle class="st6" cx="-1485.1" cy="120" r="5"/>
		<circle class="st6" cx="-1452.9" cy="120" r="5"/>
	</g>
	<path d="M-1459.1,152.5c0,1.1-0.9,2-2,2h-13.5c-1.1,0-2-0.9-2-2l0,0c0-1.1,0.9-2,2-2h13.5C-1460,150.5-1459.1,151.4-1459.1,152.5
		L-1459.1,152.5z"/>
	<path class="st4" d="M-1424.2,105.4L-1424.2,105.4c4.2,0,7.7,3.4,7.7,7.7v2.3c0,4.2-3.4,7.7-7.7,7.7"/>
	<path class="st4" d="M-1513.5,123L-1513.5,123c-4.2,0-7.7-3.4-7.7-7.7V113c0-4.2,3.4-7.7,7.7-7.7"/>
	<path class="st5" d="M-1419.8,77.5c-5.2-20.5-25.2-35.9-49.2-35.9s-44,15.3-49.2,35.9h-31.3v21.1h161V77.5H-1419.8z"/>
	<g>
		<g>
			<path d="M-1482.4,61.4c0.6-0.1,1.1-0.4,1.4-1c0.6-1,0.2-2.2-0.8-2.8c-1-0.6-2.2-0.2-2.8,0.8c-0.3,0.5-0.3,1.2-0.2,1.7
				c-0.6,0.1-1.1,0.4-1.4,1c-0.6,1-0.2,2.2,0.8,2.8c1,0.6,2.2,0.2,2.8-0.8C-1482.3,62.6-1482.2,61.9-1482.4,61.4z"/>
			<path d="M-1452.7,78.6c0.6-0.1,1.1-0.4,1.4-1c0.6-1,0.2-2.2-0.8-2.8c-1-0.6-2.2-0.2-2.8,0.8c-0.3,0.5-0.3,1.2-0.2,1.7
				c-0.6,0.1-1.1,0.4-1.4,1c-0.6,1-0.2,2.2,0.8,2.8c1,0.6,2.2,0.2,2.8-0.8C-1452.5,79.7-1452.5,79.1-1452.7,78.6z"/>
			<rect x="-1469.2" y="51.8" transform="matrix(0.5 -0.866 0.866 0.5 -794.3725 -1236.5992)" width="2.1" height="35.7"/>
		</g>
		<path d="M-1483,77.6c0.2-0.5,0.2-1.2-0.2-1.7c-0.6-1-1.8-1.3-2.8-0.8c-1,0.6-1.3,1.8-0.8,2.8c0.3,0.5,0.8,0.9,1.4,1
			c-0.2,0.5-0.2,1.2,0.2,1.7c0.6,1,1.8,1.3,2.8,0.8c1-0.6,1.3-1.8,0.8-2.8C-1481.9,78-1482.4,77.7-1483,77.6z"/>
		<path d="M-1453.2,60.4c0.2-0.5,0.2-1.2-0.2-1.7c-0.6-1-1.8-1.3-2.8-0.8c-1,0.6-1.3,1.8-0.8,2.8c0.3,0.5,0.8,0.9,1.4,1
			c-0.2,0.5-0.2,1.2,0.2,1.7c0.6,1,1.8,1.3,2.8,0.8c1-0.6,1.3-1.8,0.8-2.8C-1452.2,60.8-1452.7,60.5-1453.2,60.4z"/>
		<rect x="-1486.6" y="68.3" transform="matrix(0.866 -0.5 0.5 0.866 -231.4357 -725.0804)" width="35.7" height="2.1"/>
		<path class="st2" d="M-1456.6,69.3c0,6.7-5.4,12.1-12.1,12.1c-6.7,0-12.1-5.4-12.1-12.1c0-6.7,5.4-12.1,12.1-12.1
			C-1462,57.2-1456.6,62.6-1456.6,69.3z"/>
		<path d="M-1468.7,60.9c-5,0-9,4-9,9c0,1.9,0.6,3.6,1.5,5h2.4v2.8h10.2V75h2.3c1-1.4,1.6-3.2,1.6-5
			C-1459.7,64.9-1463.7,60.9-1468.7,60.9z M-1471.9,69.9c-1,0-1.8-0.8-1.8-1.8c0-1,0.8-1.8,1.8-1.8c1,0,1.8,0.8,1.8,1.8
			C-1470.1,69.1-1470.9,69.9-1471.9,69.9z M-1470,74l1.2-2.7l1.2,2.7H-1470z M-1465.6,69.9c-1,0-1.8-0.8-1.8-1.8
			c0-1,0.8-1.8,1.8-1.8c1,0,1.8,0.8,1.8,1.8C-1463.8,69.1-1464.6,69.9-1465.6,69.9z"/>
	</g>
	<circle class="st7" cx="-508" cy="98.2" r="12"/>
	<path class="st7" d="M-518.7,207.4c11.3,13.7,28.7,6.2,39.8-3.8c14.3-12.9,23-30.1,25-49.1c2.2-21.9-3.7-34.2-26-39.7
		c-18.1-4.4-36.4-0.2-34,21.8c1.3,12.5,15,30.9,3,41C-511,177.6-530.9,192.5-518.7,207.4z"/>
	<circle class="st7" cx="-485.1" cy="97.2" r="6"/>
	<circle class="st7" cx="-469.5" cy="102.2" r="6"/>
	<circle class="st7" cx="-456.5" cy="110.6" r="6"/>
	<circle class="st7" cx="-447" cy="123.6" r="6"/>
	<path class="st7" d="M-1149.7,47.1c-55.2,0-100,44.8-100,100c0,55.2,44.8,100,100,100s100-44.8,100-100
		C-1049.7,91.9-1094.5,47.1-1149.7,47.1z M-1149.7,230.4c-46,0-83.3-37.3-83.3-83.3c0-46,37.3-83.3,83.3-83.3s83.3,37.3,83.3,83.3
		C-1066.4,193.1-1103.7,230.4-1149.7,230.4z"/>
	<g>
		<path d="M-881.6,103.1c3.1-0.6,6-2.5,7.7-5.5c3.2-5.5,1.3-12.5-4.2-15.6c-5.5-3.2-12.5-1.3-15.6,4.2c-1.7,3-1.9,6.4-0.9,9.4
			c-3.1,0.6-6,2.5-7.7,5.5c-3.2,5.5-1.3,12.5,4.2,15.6c5.5,3.2,12.5,1.3,15.6-4.2C-880.8,109.6-880.6,106.1-881.6,103.1z"/>
		<path d="M-716.4,198.5c3.1-0.6,6-2.5,7.7-5.5c3.2-5.5,1.3-12.5-4.2-15.6c-5.5-3.2-12.5-1.3-15.6,4.2c-1.7,3-1.9,6.4-0.9,9.4
			c-3.1,0.6-6,2.5-7.7,5.5c-3.2,5.5-1.3,12.5,4.2,15.6c5.5,3.2,12.5,1.3,15.6-4.2C-715.5,205-715.3,201.6-716.4,198.5z"/>
		<rect x="-808" y="49.8" transform="matrix(0.5 -0.866 0.866 0.5 -530.1286 -620.2947)" width="11.4" height="198.3"/>
	</g>
	<path d="M-884.9,192.9c1-3,0.8-6.4-0.9-9.4c-3.2-5.5-10.2-7.4-15.6-4.2c-5.5,3.2-7.4,10.2-4.2,15.6c1.7,3,4.6,4.8,7.7,5.5
		c-1,3-0.8,6.4,0.9,9.4c3.2,5.5,10.2,7.4,15.6,4.2c5.5-3.2,7.4-10.2,4.2-15.6C-878.9,195.4-881.8,193.5-884.9,192.9z"/>
	<path d="M-719.6,97.5c1-3,0.8-6.4-0.9-9.4c-3.2-5.5-10.2-7.4-15.6-4.2c-5.5,3.2-7.4,10.2-4.2,15.6c1.7,3,4.6,4.8,7.7,5.5
		c-1,3-0.8,6.4,0.9,9.4c3.2,5.5,10.2,7.4,15.6,4.2c5.5-3.2,7.4-10.2,4.2-15.6C-713.6,100-716.5,98.1-719.6,97.5z"/>
	<rect x="-904.7" y="141.3" transform="matrix(0.866 -0.5 0.5 0.866 -181.4503 -383.041)" width="198.3" height="11.5"/>
	
		<ellipse transform="matrix(0.9853 -0.1711 0.1711 0.9853 -37.0428 -135.6531)" class="st2" cx="-805.5" cy="147.1" rx="67.4" ry="67.4"/>
	<path d="M-805.5,100.4c-27.6,0-50,22.4-50,50c0,10.4,3.2,20,8.6,28h13.1v15.3h56.7v-15.3h13.1c5.4-8,8.6-17.7,8.6-28
		C-755.5,122.8-777.9,100.4-805.5,100.4z M-823,150.4c-5.5,0-10-4.5-10-10c0-5.5,4.5-10,10-10c5.5,0,10,4.5,10,10
		C-813,145.9-817.5,150.4-823,150.4z M-812.4,172.9l6.9-15l6.9,15H-812.4z M-788,150.4c-5.5,0-10-4.5-10-10c0-5.5,4.5-10,10-10
		c5.5,0,10,4.5,10,10C-778,145.9-782.5,150.4-788,150.4z"/>
	<rect x="-1118" y="541" class="st0" width="93" height="90.5"/>
	<rect x="-1212" y="685" class="st8" width="22" height="22"/>
	<rect x="-855" y="604" class="st9" width="22" height="22"/>
	<rect x="-1212" y="658" class="st8" width="22" height="22"/>
	<rect x="-1212" y="716" class="st8" width="22" height="40"/>
	<rect x="-1212" y="772" class="st8" width="22" height="40"/>
	<rect x="-1180" y="658" class="st8" width="38" height="22"/>
	<rect x="-1180" y="685" class="st8" width="38" height="22"/>
	<rect x="-1180" y="772" class="st8" width="38" height="40"/>
	<rect x="-863" y="595" class="st9" width="38" height="40"/>
	<rect x="-1180" y="716" class="st8" width="38" height="40"/>
	<rect x="-1118" y="658" class="st9" width="93" height="92"/>
	<rect x="-1342" y="716" class="st8" width="95" height="96"/>
	<rect x="-1342" y="658" class="st8" width="43" height="38"/>
	<rect x="-1283" y="658" class="st8" width="40" height="38"/>
	<rect x="-1118" y="541" class="st9" width="93" height="90.5"/>
	<rect x="-1342" y="541" class="st8" width="95" height="101"/>
	<rect x="-1226" y="604" class="st8" width="39" height="38"/>
	<rect x="-1169" y="595" class="st8" width="36" height="47"/>
	<rect x="-1003" y="595" class="st9" width="40" height="47"/>
	<rect x="-951" y="604" class="st9" width="38" height="38"/>
	<rect x="-1003" y="658" class="st9" width="40" height="22"/>
	<rect x="-1003" y="685" class="st9" width="40" height="11"/>
	<rect x="-951" y="662" class="st9" width="38" height="34"/>
	<rect x="-1226" y="541" class="st8" width="19.5" height="19"/>
	<rect x="-1226" y="566" class="st8" width="36" height="16"/>
	<rect x="-1169" y="541" class="st8" width="36" height="19"/>
	<rect x="-1169" y="566" class="st8" width="36" height="20.2"/>
	<rect x="-1003" y="541" class="st9" width="35" height="19"/>
	<rect x="-1003" y="566" class="st9" width="35" height="20.2"/>
	<rect x="-951" y="541" class="st9" width="38" height="19"/>
	<rect x="-951" y="566" class="st9" width="38" height="20.2"/>
	<rect x="-1003" y="716" class="st9" width="90" height="34"/>
	<rect x="-1102" y="772" class="st9" width="41" height="40"/>
	<rect x="-990" y="772" class="st9" width="39" height="40"/>
	<rect x="-1045" y="812" class="st9" width="42" height="36"/>
	<rect x="-1118" y="858" class="st9" width="36.5" height="19"/>
	<rect x="-1061" y="858" class="st9" width="37" height="19"/>
	<rect x="-1401" y="772" class="st8" width="41" height="40"/>
	<rect x="-1401" y="658" class="st8" width="41" height="19"/>
	<rect x="-1401" y="615" class="st8" width="41" height="20"/>
	<rect x="-1405" y="541" class="st8" width="45" height="19"/>
	<rect x="-1206.5" y="541" class="st8" width="16.5" height="19"/>
	<rect x="-1401" y="566" class="st8" width="41" height="16"/>
	<rect x="-1405" y="716" class="st8" width="22.5" height="20"/>
	<rect x="-1382.5" y="716" class="st8" width="22.5" height="20"/>
	<rect x="-1405" y="743" class="st8" width="22.5" height="21"/>
	<rect x="-1382.5" y="743" class="st8" width="22.5" height="21"/>
	<rect x="-668" y="540" class="st0" width="90.5" height="93"/>
	<rect x="-493" y="897.5" class="st9" width="20" height="22.5"/>
	<rect x="-466" y="897.5" class="st9" width="21" height="22.5"/>
	<g>
		<rect x="-668" y="540" class="st8" width="90.5" height="93"/>
		<g>
			<rect x="-551" y="540" class="st8" width="92" height="93"/>
			<g>
				<g>
					<g>
						<rect x="-614" y="478" class="st8" width="47" height="40"/>
						<rect x="-605" y="428" class="st8" width="38" height="38"/>
						<rect x="-551" y="478" class="st8" width="22" height="40"/>
						<rect x="-524" y="478" class="st8" width="11" height="40"/>
						<rect x="-547" y="428" class="st8" width="34" height="38"/>
						<rect x="-668" y="483" class="st8" width="19" height="35"/>
						<rect x="-643" y="483" class="st8" width="20.2" height="35"/>
						<rect x="-668" y="428" class="st8" width="19" height="38"/>
						<rect x="-643" y="428" class="st8" width="20.2" height="38"/>
						<rect x="-493" y="428" class="st8" width="34" height="90"/>
					</g>
					<rect x="-437" y="466" class="st8" width="40" height="39"/>
				</g>
				<g>
					<g>
						<rect x="-437" y="576" class="st8" width="40" height="41"/>
						<rect x="-397" y="518" class="st8" width="36" height="42"/>
						<rect x="-379" y="591.5" class="st8" width="19" height="36.5"/>
						<rect x="-351" y="539" class="st8" width="19" height="37"/>
					</g>
					<g>
						<g>
							<rect x="-524" y="705" class="st8" width="22" height="22"/>
							<rect x="-551" y="705" class="st8" width="22" height="22"/>
							<rect x="-493" y="705" class="st8" width="40" height="22"/>
							<rect x="-437" y="705" class="st8" width="40" height="22"/>
							<rect x="-551" y="657" class="st8" width="22" height="38"/>
							<rect x="-524" y="657" class="st8" width="22" height="38"/>
							<rect x="-437" y="657" class="st8" width="40" height="38"/>
							<rect x="-493" y="657" class="st8" width="40" height="38"/>
							<rect x="-605" y="702" class="st8" width="38" height="39"/>
							<rect x="-614" y="648" class="st8" width="47" height="36"/>
							<rect x="-668" y="721.5" class="st8" width="19" height="19.5"/>
							<rect x="-643" y="705" class="st8" width="16" height="36"/>
							<rect x="-668" y="648" class="st8" width="19" height="36"/>
							<rect x="-643" y="648" class="st8" width="20.2" height="36"/>
							<rect x="-668" y="705" class="st8" width="19" height="16.5"/>
						</g>
						<g>
							<rect x="-493" y="762" class="st8" width="96" height="95"/>
							<rect x="-551" y="814" class="st8" width="38" height="43"/>
							<rect x="-551" y="758" class="st8" width="38" height="40"/>
							<rect x="-668" y="762" class="st8" width="101" height="95"/>
							<rect x="-437" y="875" class="st8" width="40" height="41"/>
							<rect x="-551" y="875" class="st8" width="19" height="41"/>
							<rect x="-594" y="875" class="st8" width="20" height="41"/>
							<rect x="-668" y="875" class="st8" width="19" height="45"/>
							<rect x="-643" y="875" class="st8" width="16" height="41"/>
							<rect x="-493" y="875" class="st8" width="20" height="22.5"/>
							<rect x="-466" y="875" class="st8" width="21" height="22.5"/>
						</g>
					</g>
				</g>
			</g>
		</g>
	</g>
	<circle class="st10" cx="-1228" cy="705" r="10.1"/>
	<g>
		<rect x="-191.5" y="181.3" class="st7" width="43.1" height="25.3"/>
		<path class="st7" d="M-99.1,85.9h-29.8c-5-18-21.5-31.2-41.1-31.2s-36.1,13.2-41.1,31.2h-29.8c-7.5,0-13.5,6-13.5,13.5v141.8
			c0,7.5,6,13.5,13.5,13.5h141.8c7.5,0,13.5-6,13.5-13.5V99.4C-85.6,92-91.6,85.9-99.1,85.9z M-170,73.6c13.1,0,23.6,10.6,23.6,23.6
			c0,13.1-10.6,23.6-23.6,23.6s-23.6-10.6-23.6-23.6C-193.6,84.2-183.1,73.6-170,73.6z M-102.5,227.1c0,6-4.8,10.8-10.8,10.8h-113.4
			c-6,0-10.8-4.8-10.8-10.8V113.6c0-6,4.8-10.8,10.8-10.8h14.5c2.7,21,20.6,37.2,42.3,37.2s39.6-16.2,42.3-37.2h14.5
			c6,0,10.8,4.8,10.8,10.8V227.1z"/>
	</g>
	<g>
		<circle class="st7" cx="1388.1" cy="388.5" r="21.5"/>
		<path class="st7" d="M1368.9,583.6c20.2,24.6,51.4,11,71.1-6.8c25.6-23.1,41.2-53.9,44.7-87.8c4-39.3-6.5-61.2-46.5-71
			c-32.3-7.9-65-0.4-60.8,38.9c2.4,22.3,26.8,55.2,5.4,73.3C1382.8,530.3,1347.2,557.1,1368.9,583.6z"/>
		<circle class="st7" cx="1429.1" cy="386.7" r="10.7"/>
		<circle class="st7" cx="1456.9" cy="395.6" r="10.7"/>
		<circle class="st7" cx="1480.2" cy="410.5" r="10.7"/>
		<circle class="st7" cx="1497.2" cy="433.8" r="10.7"/>
	</g>
</g>
<g id="Layer_3">
	<rect x="570.8" y="785.3" class="st2" width="200" height="170"/>
	<path class="st11" d="M421,855.1c-23.8,0-43-16.7-43-37.4"/>
	<path class="st11" d="M331.7,938.9c0-65.7,20.5-119,45.8-119"/>
	<pattern  id="SVGID_1_" xlink:href="#New_Pattern_Swatch_3" patternTransform="matrix(1 0 0 1 54.0732 31.9346)">
	</pattern>
	<pattern  id="SVGID_2_" xlink:href="#New_Pattern_Swatch_3" patternTransform="matrix(1 0 0 1 54.0732 31.9346)">
	</pattern>
	<rect x="236.6" y="825.4" class="st12" width="53.5" height="44.8"/>
</g>
<g id="Layer_2">
	<g>
		<path class="st7" d="M-1112.2,128.2l7-4.1c0.2,0.5,0.4,1.1,0.7,1.6c1.9,3.3,6.1,4.4,9.4,2.5c3.3-1.9,4.4-6.1,2.5-9.4
			c-1-1.8-2.7-2.9-4.6-3.3l0,0c0.6-1.8,0.5-3.9-0.5-5.6c-1.9-3.3-6.1-4.4-9.4-2.5c-3.3,1.9-4.4,6.1-2.5,9.4c0.3,0.5,0.7,1,1.1,1.4
			l-7,4.1C-1114.3,124.1-1113.2,126.1-1112.2,128.2z"/>
		<path class="st7" d="M-1093.2,163.6c-3.3-1.9-7.5-0.8-9.4,2.5c-0.3,0.5-0.5,1.1-0.6,1.6l-9-5.2c-1,2.1-2.1,4.1-3.4,6l9,5.2
			c-0.4,0.4-0.8,0.8-1.1,1.4c-1.9,3.3-0.8,7.5,2.5,9.4c3.3,1.9,7.5,0.8,9.4-2.5c1-1.8,1.1-3.8,0.5-5.6l0,0c1.9-0.4,3.6-1.5,4.6-3.3
			C-1088.8,169.7-1089.9,165.5-1093.2,163.6z"/>
		<path class="st7" d="M-1189.8,115.7c1.9-3.3,0.8-7.5-2.5-9.4c-3.3-1.9-7.5-0.8-9.4,2.5c-1,1.8-1.1,3.8-0.5,5.6
			c-1.9,0.4-3.6,1.5-4.6,3.3c-1.9,3.3-0.8,7.5,2.5,9.4c3.3,1.9,7.5,0.8,9.4-2.5c0.3-0.5,0.5-1.1,0.6-1.6l9,5.2c1-2.1,2.1-4.1,3.4-6
			l-9-5.2C-1190.5,116.7-1190.1,116.2-1189.8,115.7z"/>
		<path class="st7" d="M-1185.3,162.5l-10.9,6.3c-0.1-0.5-0.4-1.1-0.7-1.6c-1.9-3.3-6.1-4.4-9.4-2.5c-3.3,1.9-4.4,6.1-2.5,9.4
			c1,1.8,2.7,2.9,4.6,3.3c-0.6,1.8-0.5,3.9,0.5,5.6c1.9,3.3,6.1,4.4,9.4,2.5c3.3-1.9,4.4-6.1,2.5-9.4c-0.3-0.5-0.7-1-1.1-1.4
			l10.9-6.3C-1183.2,166.6-1184.4,164.6-1185.3,162.5z"/>
		<path class="st7" d="M-1148.8,117.4c-16.6,0-30,13.4-30,30c0,6.2,1.9,12,5.2,16.8h7.8v9.2h34v-9.2h7.8c3.3-4.8,5.2-10.6,5.2-16.8
			C-1118.8,130.8-1132.2,117.4-1148.8,117.4z M-1159.3,147.4c-3.3,0-6-2.7-6-6c0-3.3,2.7-6,6-6c3.3,0,6,2.7,6,6
			C-1153.3,144.7-1155.9,147.4-1159.3,147.4z M-1152.9,160.9l4.1-9l4.1,9H-1152.9z M-1138.3,147.4c-3.3,0-6-2.7-6-6c0-3.3,2.7-6,6-6
			c3.3,0,6,2.7,6,6C-1132.3,144.7-1134.9,147.4-1138.3,147.4z"/>
	</g>
	<path class="st13" d="M349.2-85.7c-5.2-18.4-25.2-32.2-49.2-32.2s-44,13.7-49.2,32.2h-31.3v19h161v-19H349.2z"/>
	<path class="st7" d="M490,105.9l-40-8l-40,8v72v12v4l40-8l40,8l40-8v-4v-12v-72L490,105.9z M488,177.5l-36-7.2v-67.9l36,7.2V177.5z
		 M414,109.2l34-6.8v67.9l-34,6.8V109.2z M492,177.5v-67.9l34-6.8v67.9L492,177.5z"/>
	<g id="layer1" transform="translate(-6.3260942,-174.7524)" inkscape:groupmode="layer" inkscape:label="Layer 1">
		<g id="g3052">
			
				<path id="path3055" inkscape:connector-curvature="0" inkscape:export-filename="new.png" inkscape:export-xdpi="250.55" inkscape:export-ydpi="250.55" class="st7" d="
				M795.6,228.8c-1.8,0.1-3.5,0.5-5.1,1.3L721,263.3c-3.6,1.7-6.3,5-7.2,8.9l-17.2,74.6c-0.8,3.5-0.1,7.1,1.8,10.1
				c0.2,0.4,0.5,0.7,0.8,1l48.1,59.8c2.5,3.1,6.3,5,10.4,5l77.2,0c4,0,7.9-1.8,10.4-5l48.1-59.8c2.5-3.1,3.5-7.2,2.6-11.2
				l-17.2-74.6c-0.9-3.9-3.5-7.2-7.2-8.9l-69.5-33.2C800.1,229.1,797.9,228.7,795.6,228.8z"/>
			
				<path id="path3059" inkscape:connector-curvature="0" inkscape:export-filename="./path3059.png" inkscape:export-xdpi="250.55" inkscape:export-ydpi="250.55" sodipodi:nodetypes="ccccccccsccccscssccsccccccccscccsccccccccccccccscccscsccsccccscscsccccccccscccscsccccsccccscscscccccccccccccccscccsccccccccccccscccccscccccccccccccccccccccccscccscccccccccscccscccc" class="st14" d="
				M796.3,254.2c-2.3,0-4.2,2.1-4.2,4.6c0,0,0,0.1,0,0.1c0,0.3,0,0.8,0,1.1c0.1,1.5,0.4,2.6,0.6,4c0.3,2.9,0.6,5.3,0.5,7.6
				c-0.2,0.8-0.8,1.6-1.4,2.2l-0.1,1.8c-2.5,0.2-5,0.6-7.5,1.2c-10.8,2.5-20.1,8-27.2,15.5c-0.5-0.3-1.3-0.9-1.5-1.1
				c-0.7,0.1-1.5,0.3-2.5-0.2c-1.9-1.3-3.6-3-5.6-5.1c-0.9-1-1.6-1.9-2.7-2.9c-0.3-0.2-0.6-0.5-0.9-0.7c-0.9-0.7-1.9-1.1-2.9-1.1
				c-1.3,0-2.5,0.5-3.3,1.5c-1.4,1.8-1,4.5,1,6.1c0,0,0,0,0.1,0c0.3,0.2,0.6,0.5,0.9,0.7c1.2,0.9,2.3,1.3,3.5,2
				c2.5,1.5,4.6,2.8,6.2,4.3c0.6,0.7,0.8,1.9,0.8,2.4l1.3,1.2c-7.1,10.7-10.4,24-8.5,37.5l-1.7,0.5c-0.5,0.6-1.1,1.5-1.8,1.8
				c-2.1,0.7-4.6,0.9-7.5,1.2c-1.4,0.1-2.5,0-4,0.3c-0.3,0.1-0.8,0.2-1.1,0.3c0,0,0,0,0,0c0,0,0,0-0.1,0c-2.5,0.6-4,2.8-3.5,5.1
				c0.5,2.2,2.9,3.6,5.4,3c0,0,0,0,0.1,0c0,0,0.1,0,0.1,0c0.3-0.1,0.8-0.2,1.1-0.2c1.4-0.4,2.5-0.9,3.7-1.4c2.8-1,5-1.8,7.3-2.1
				c0.9-0.1,1.9,0.6,2.4,0.8l1.8-0.3c4.2,12.9,12.9,23.4,24,30l-0.8,1.8c0.3,0.7,0.6,1.7,0.4,2.4c-0.8,2.1-2.2,4.3-3.8,6.8
				c-0.8,1.1-1.5,2-2.2,3.3c-0.2,0.3-0.4,0.8-0.5,1.1c-1.1,2.3-0.3,4.9,1.8,5.9c2.1,1,4.6-0.1,5.7-2.3c0,0,0,0,0,0c0,0,0,0,0,0
				c0.2-0.3,0.4-0.8,0.5-1.1c0.6-1.4,0.8-2.5,1.2-3.8c1.1-2.8,1.7-5.7,3.2-7.5c0.4-0.5,1.1-0.7,1.8-0.9l0.9-1.7
				c9.7,3.7,20.5,4.7,31.3,2.2c2.5-0.6,4.8-1.3,7.1-2.2c0.3,0.5,0.8,1.4,0.9,1.6c0.7,0.2,1.5,0.4,2.1,1.3c1.1,1.9,1.9,4.2,2.9,7
				c0.4,1.3,0.6,2.5,1.2,3.8c0.1,0.3,0.4,0.7,0.5,1.1c1.1,2.3,3.7,3.4,5.8,2.4c2.1-1,2.8-3.6,1.8-5.9c-0.2-0.3-0.4-0.8-0.5-1.1
				c-0.7-1.3-1.5-2.2-2.2-3.3c-1.6-2.5-2.9-4.5-3.7-6.6c-0.3-1.1,0.1-1.8,0.3-2.5c-0.2-0.2-0.5-1.2-0.7-1.7
				c11.5-6.8,20-17.6,24-30.2c0.5,0.1,1.5,0.2,1.8,0.3c0.6-0.4,1.2-1,2.3-0.9c2.2,0.3,4.5,1.1,7.3,2.1c1.3,0.5,2.3,1.1,3.7,1.4
				c0.3,0.1,0.7,0.2,1.1,0.2c0,0,0.1,0,0.1,0c0,0,0,0,0.1,0c2.5,0.5,4.9-0.8,5.4-3c0.5-2.2-1.1-4.5-3.5-5.1
				c-0.4-0.1-0.9-0.2-1.2-0.3c-1.4-0.3-2.6-0.2-4-0.3c-2.9-0.3-5.3-0.6-7.5-1.2c-0.9-0.3-1.5-1.4-1.8-1.8l-1.7-0.5
				c0.9-6.3,0.6-12.9-0.9-19.4c-1.5-6.6-4.2-12.7-7.8-18c0.4-0.4,1.2-1.1,1.5-1.3c0.1-0.7,0-1.5,0.8-2.4c1.6-1.5,3.7-2.8,6.2-4.3
				c1.2-0.7,2.3-1.1,3.5-2c0.3-0.2,0.6-0.5,0.9-0.7c2-1.6,2.5-4.3,1-6.1c-1.4-1.8-4.2-2-6.2-0.4c-0.3,0.2-0.7,0.5-0.9,0.7
				c-1.1,1-1.8,1.9-2.7,2.9c-2.1,2.1-3.7,3.8-5.6,5.1c-0.8,0.5-2,0.3-2.5,0.3l-1.6,1.1c-9-9.5-21.3-15.5-34.5-16.7
				c0-0.6-0.1-1.6-0.1-1.9c-0.5-0.5-1.2-1-1.4-2.1c-0.2-2.2,0.1-4.6,0.5-7.6c0.2-1.4,0.5-2.5,0.6-4c0-0.3,0-0.8,0-1.2
				C800.5,256.3,798.6,254.2,796.3,254.2L796.3,254.2z M791.1,286.5l-1.2,21.8l-0.1,0c-0.1,2-1.7,3.5-3.7,3.5
				c-0.8,0-1.6-0.3-2.2-0.7l0,0L766,298.5c5.5-5.4,12.5-9.4,20.6-11.2C788.2,286.9,789.6,286.6,791.1,286.5z M801.5,286.5
				c9.5,1.2,18.2,5.5,24.9,12l-17.8,12.6l-0.1,0c-1.6,1.2-3.8,0.9-5-0.7c-0.5-0.6-0.8-1.4-0.8-2.1l0,0L801.5,286.5z M759.5,306.6
				l16.3,14.6l0,0.1c1.5,1.3,1.7,3.5,0.5,5.1c-0.5,0.6-1.2,1.1-1.9,1.3l0,0.1l-21,6C752.4,324,754.7,314.5,759.5,306.6z M833,306.6
				c2.4,3.9,4.3,8.3,5.4,13.1c1.1,4.7,1.4,9.4,0.9,14l-21.1-6.1l0-0.1c-1.9-0.5-3-2.4-2.6-4.4c0.2-0.8,0.6-1.5,1.2-1.9l0,0
				L833,306.6L833,306.6z M793,322.4h6.7l4.2,5.2l-1.5,6.5l-6,2.9l-6-2.9l-1.5-6.5L793,322.4z M814.4,340.2c0.3,0,0.6,0,0.8,0.1l0,0
				l21.7,3.7c-3.2,8.9-9.2,16.6-17.3,21.8l-8.4-20.3l0,0c-0.8-1.8,0-3.9,1.8-4.8C813.5,340.3,814,340.2,814.4,340.2L814.4,340.2z
				 M778,340.3c1.7,0,3.1,1.2,3.5,2.9c0.2,0.8,0.1,1.6-0.2,2.3l0.1,0.1l-8.3,20.1c-7.8-5-14-12.5-17.3-21.6l21.5-3.6l0,0
				C777.6,340.3,777.8,340.3,778,340.3L778,340.3z M796.2,349.1c0.6,0,1.2,0.1,1.7,0.4c0.7,0.4,1.3,0.9,1.6,1.6h0.1l10.6,19.1
				c-1.4,0.5-2.8,0.9-4.2,1.2c-8.1,1.8-16.2,1.3-23.5-1.2l10.6-19.1h0C793.7,349.8,794.9,349.1,796.2,349.1z"/>
		</g>
	</g>
	<path class="st7" d="M1100.5,36.3c8.6,0,14.3,6.7,14.3,14.3s-5.7,14.3-14.3,14.3c-7.6,0-14.3-6.7-14.3-14.3
		S1092.9,36.3,1100.5,36.3L1100.5,36.3z M1100.5,26.8c-12.4,0-23.8,10.5-23.8,23.8s11.4,23.8,23.8,23.8c12.4,0,23.8-10.5,23.8-23.8
		S1113.8,26.8,1100.5,26.8L1100.5,26.8L1100.5,26.8z"/>
	<path class="st7" d="M1171.9,64.9l-28.6,16.2v22.9l-35.2-20l-50.5,28.6v34.3l-19-10.5l-28.6,16.2v33.3l28.6,16.2l28.6-16.2v-10.5
		l42.9,22.9l47.6-28.6V123l14.3,8.6l28.6-16.2V82L1171.9,64.9L1171.9,64.9z M1108.1,95.3l36.2,20l-33.3,17.1l-38.1-17.1L1108.1,95.3
		L1108.1,95.3z M1057.6,180.1l-19,11.4l-19-10.5v-21.9l19-11.4l19,10.5V180.1L1057.6,180.1z M1067.1,123.9l38.1,17.1v43.8
		l-38.1-20.9V123.9L1067.1,123.9z M1114.8,183.9v-42.9l33.3-17.1v40L1114.8,183.9L1114.8,183.9z M1191,109.6l-19,11.4l-19-11.4V86.8
		l19-11.4l19,11.4V109.6L1191,109.6z"/>
	<path class="st7" d="M1033.8,64.9c8.6,0,14.3,6.7,14.3,14.3s-5.7,14.3-14.3,14.3s-14.3-6.7-14.3-14.3S1026.2,64.9,1033.8,64.9
		L1033.8,64.9z M1033.8,55.3c-13.3,0-23.8,10.5-23.8,23.8s10.5,23.8,23.8,23.8c13.3,0,23.8-10.5,23.8-23.8S1047.1,55.3,1033.8,55.3
		L1033.8,55.3L1033.8,55.3z"/>
	<path class="st7" d="M1119.5,217.2c7.6,0,14.3,6.7,14.3,14.3c0,7.6-5.7,14.3-14.3,14.3s-14.3-6.7-14.3-14.3
		C1105.2,223.9,1111.9,217.2,1119.5,217.2L1119.5,217.2z M1119.5,207.7c-13.3,0-23.8,10.5-23.8,23.8c0,13.3,10.5,23.8,23.8,23.8
		c13.3,0,23.8-10.5,23.8-23.8C1143.3,218.2,1132.9,207.7,1119.5,207.7L1119.5,207.7L1119.5,207.7z"/>
	<path class="st7" d="M1186.2,179.1c7.6,0,14.3,6.7,14.3,14.3c0,7.6-6.7,14.3-14.3,14.3s-14.3-6.7-14.3-14.3
		C1171.9,185.8,1178.6,179.1,1186.2,179.1L1186.2,179.1z M1186.2,169.6c-13.3,0-23.8,10.5-23.8,23.8c0,13.3,10.5,23.8,23.8,23.8
		s23.8-10.5,23.8-23.8C1210,180.1,1199.5,169.6,1186.2,169.6L1186.2,169.6L1186.2,169.6z"/>
	<g id="Lockup">
		<path id="Avatar_Flat" class="st7" d="M1333.1,127.9c-0.9,0-1.8-0.3-2.5-0.6l-24-13.8c-2.5-1.2-3.1-4.3-1.8-6.8
			c1.5-2.5,4.6-3.4,6.8-1.8l24,13.8c2.5,1.2,3.1,4.3,1.8,6.8C1336.8,127,1334.9,127.9,1333.1,127.9z M1376.5,86.7
			c2.5-1.2,3.1-4.3,1.8-6.8l-13.8-24.3c-1.2-2.5-4.3-3.1-6.8-1.8c-2.5,1.2-3.1,4.3-1.8,6.8l13.8,24c0.9,1.5,2.5,2.5,4.3,2.5
			C1374.9,87.3,1375.8,87,1376.5,86.7z M1434.9,67.3V39.6c0-2.8-2.2-4.9-4.9-4.9c-2.8,0-4.9,2.2-4.9,4.9v27.7c0,2.8,2.2,4.9,4.9,4.9
			C1432.8,72.2,1434.9,70.1,1434.9,67.3z M1490,84.8l13.8-24c1.2-2.5,0.6-5.5-1.8-6.8c-2.5-1.2-5.5-0.6-6.8,1.8l-13.8,24
			c-1.5,2.2-0.6,5.2,1.8,6.8c0.9,0.3,1.5,0.6,2.5,0.6C1487.5,87.3,1489.1,86.4,1490,84.8z M1529.4,127.3l24-13.8
			c2.5-1.2,3.1-4.3,1.8-6.8c-1.2-2.5-4.3-3.1-6.8-1.8l-24,13.8c-2.5,1.2-3.1,4.3-1.8,6.8c0.9,1.5,2.5,2.5,4.3,2.5
			C1527.5,127.9,1528.5,127.9,1529.4,127.3z M1434.3,91.3c-9.2,0-19.7,2.2-25.8,4.3c-0.6,0.3-1.2,0.6-1.2,0.9c0,0.6,0.6,0.9,0.9,0.9
			c0.3,0,1.8-0.3,2.8-0.6c5.2-0.9,8-1.2,15.4-1.2c8.3,0,16.9,1.5,24.9,4.6c-32.3,12.3-64.6,57.2-75.7,97.5
			c-12-13.2-19.4-28.3-19.4-42.2c0-23.7,19.4-37.8,47.4-37.8c0.9,0,1.5,0,2.2,0s0.6-0.6,0.6-0.9c0-0.6-0.3-0.9-0.9-0.9
			c-1.8-0.3-6.2-0.9-10.8-0.9c-28.3,0-48.6,14.5-48.6,40.6c0,17.8,10.5,36.9,26.8,53.5c-0.9,5.5-1.5,11.1-1.5,16.3
			c0,2.2,0.3,6.5,0.9,10.8c-9.8-8.6-17.2-19.1-21.2-29.5c-0.9-2.2-2.5-6.2-2.8-7.7c-0.3-0.9-0.6-0.9-1.2-0.9s-0.9,0.3-0.9,0.9
			c0,0.6,0.3,2.5,0.3,3.1c5.8,29.5,35.1,67.1,83.4,67.1c53.2,0,89.8-44,89.8-89.8C1519.8,131.6,1483.5,91.3,1434.3,91.3z
			 M1429.7,259c-17.5,0-31.7-6.2-37.8-9.5c-8.3-4.6-10.8-12.9-10.8-23.1c0-3.1,0.3-6.2,0.6-9.2c21.2,17.8,49.2,29.8,77.5,29.8
			c6.2,0,12-0.9,17.2-2.5l0,0C1466.9,251.3,1450.3,259,1429.7,259z M1458.9,237.2c-26.8,0-55.1-13.2-75.1-31.1
			c10.5-46.5,52.3-98.2,79.4-98.2c3.1,0,5.5,0.6,9.2,2.8c5.2,3.4,10.2,7.1,14.2,11.1c12.3,12,24,32.3,24,57.5
			c0,19.7-6.8,34.8-13.8,44C1488.5,233.2,1474,237.2,1458.9,237.2z"/>
	</g>
	<g>
		<rect x="1681.5" y="126" transform="matrix(0.866 -0.5 0.5 0.866 157.4595 888.11)" class="st7" width="109" height="48.5"/>
		<rect x="1782.3" y="79.1" transform="matrix(0.866 -0.5 0.5 0.866 180.6228 911.899)" class="st11" width="19" height="79.6"/>
		
			<rect x="1817" y="36.8" transform="matrix(0.8659 -0.5002 0.5002 0.8659 193.0028 923.9741)" class="st7" width="6" height="130.4"/>
		<rect x="1646" y="179.5" transform="matrix(0.866 -0.5 0.5 0.866 129.6126 860.5248)" class="st7" width="49" height="17.9"/>
		<g>
			<polygon class="st7" points="1793.7,246.5 1787.6,250 1743.7,173.6 1749.8,170 			"/>
			<polygon class="st7" points="1702.3,246.5 1708.4,250 1752.3,173.6 1746.2,170 			"/>
		</g>
		<rect x="1694.2" y="244.1" class="st7" width="23.8" height="11.9"/>
		<rect x="1777.9" y="244.1" class="st7" width="23.8" height="11.9"/>
		<circle class="st15" cx="1747.9" cy="174.3" r="19.5"/>
		<rect x="1800.4" y="68.5" transform="matrix(0.866 -0.5 0.5 0.866 188.3678 919.506)" class="st13" width="19" height="79.6"/>
	</g>
	<g>
		<rect x="570.9" y="785.3" class="st3" width="199.9" height="9.2"/>
		<rect x="570.8" y="803.1" class="st3" width="199.9" height="9.2"/>
		<rect x="570.8" y="821" class="st3" width="199.9" height="9.2"/>
		<rect x="570.8" y="838.9" class="st3" width="199.9" height="9.2"/>
		<rect x="570.8" y="856.8" class="st3" width="199.9" height="9.2"/>
		<rect x="570.8" y="874.6" class="st3" width="199.9" height="9.2"/>
		<rect x="570.8" y="892.5" class="st3" width="199.9" height="9.2"/>
		<rect x="570.8" y="910.4" class="st3" width="199.9" height="9.2"/>
		<rect x="570.8" y="928.3" class="st3" width="199.9" height="9.2"/>
		<rect x="570.8" y="946.1" class="st3" width="199.9" height="9.2"/>
	</g>
	<g>
		<path class="st11" d="M207.5,466c0,51.9-43.2,58.2-75,58.2c-31.8,0-40-22.2-40-74.1c0-51.9,22.9-81.5,54.7-81.5
			S207.5,414,207.5,466z"/>
		<path class="st15" d="M219.4,592.5v-12.3v-12.3v-12.3v-12.3c0-5-1.2-9.8-3.3-14.1c-2.1-4.3-5.1-8.2-8.9-11.5
			c-3.8-3.3-8.2-5.9-13.2-7.8c-5-1.8-10.4-2.9-16.2-2.9h-14.1v0.3v-10h-28.1v10V507h-14.1c-5.7,0-11.2,1-16.2,2.9
			c-5,1.8-9.4,4.5-13.2,7.8c-3.8,3.3-6.8,7.2-8.9,11.5c-2.1,4.3-3.3,9.1-3.3,14.1v12.3v12.3v12.3v12.3H219.4z"/>
		<polyline class="st15" points="163.8,507.5 163.8,507.8 163.8,497.8 135.7,497.8 135.7,507.8 135.7,507.5 		"/>
		<path class="st15" d="M195.3,441.4c0,32.8-20.3,59.4-45.3,59.4s-45.3-26.6-45.3-59.4c0-32.8,20.3-59.4,45.3-59.4
			S195.3,408.6,195.3,441.4z"/>
		<path class="st15" d="M112.2,520.9c0-65.7,20.5-119,45.8-119l0.4,1c0,20.6,19.7,24.5,43.5,24.5c0,0-7.3-30.6-12.9-37.6
			c-5.6-6.9-12.1-12.3-19.2-15.8c-7.1-3.6-14.9-5.4-22.8-5.4c-7.9,0-15.3,1.8-21.9,5.4c-6.6,3.6-12.5,8.9-17.3,15.8
			c-4.9,6.9-8.7,15.5-11.4,25.6c-2.6,10.1-4.1,21.7-4.1,34.6c0,13,0.5,24.1,1.8,33.5c1.3,9.4,3.3,17,6.3,23s7,10.4,12.3,13.3"/>
		<path class="st13" d="M198.1,412.3c0,0-7-22.7-12.3-27.9c-5.3-5.2-11.5-9.1-18.3-11.8c-6.8-2.7-14.2-4-21.7-4
			c-7.6,0-14.6,1.4-20.9,4c-6.3,2.7-11.9,6.6-16.5,11.8c-4.6,5.2-8.3,11.5-10.8,19c-2.5,7.5-3.9,16.1-3.9,25.7"/>
		<path class="st13" d="M100.4,424.8c0.3,1.5-12.7,5.7-29.2,9.3c-16.4,3.6-30,5.3-30.4,3.7c-0.3-1.5,12.7-5.7,29.2-9.3
			C86.5,424.9,100.1,423.3,100.4,424.8z"/>
		<path class="st13" d="M100.6,425c-0.3,1.5-13.9,0.4-30.5-2.6c-16.6-3-29.8-6.6-29.5-8.1c0.3-1.5,13.9-0.4,30.5,2.6
			C87.7,419.8,100.9,423.5,100.6,425z"/>
		<pattern  id="SVGID_3_" xlink:href="#New_Pattern_Swatch_7" patternTransform="matrix(1 0 0 1 0.25 -27.8389)">
		</pattern>
		<path class="st16" d="M136,508.2c0,6.1,6.3,11.1,14,11.1s14-5,14-11.1l0.1-0.4h14.1c5.7,0,11.2,1,16.2,2.9c5,1.8,9.4,4.5,13.2,7.8
			c3.8,3.3,6.8,7.2,8.9,11.5c2.1,4.3,3.3,9.1,3.3,14.1v12.3v12.3v12.3v12.3H80.4v-12.3v-12.3v-12.3v-12.3c0-5,1.2-9.8,3.3-14.1
			c2.1-4.3,5.1-8.2,8.9-11.5c3.8-3.3,8.2-5.9,13.2-7.8c5-1.8,10.4-2.9,16.2-2.9h14.1"/>
		<circle class="st13" cx="90.4" cy="425" r="7"/>
		<polygon class="st15" points="135.1,540.9 135.1,540.9 135.1,540.9 135.1,540.9 		"/>
		<line class="st11" x1="132.4" y1="507.8" x2="136.6" y2="507.8"/>
		<rect x="78.8" y="591.5" class="st2" width="142.2" height="3.9"/>
		<g>
			<circle class="st7" cx="133.9" cy="442.4" r="5"/>
			<circle class="st7" cx="166.1" cy="442.4" r="5"/>
		</g>
		<g>
			<path class="st2" d="M151.5,389.9l1.6-1.3c0.1,0.1,0.1,0.3,0.2,0.4c0.6,0.7,1.7,0.8,2.4,0.2c0.7-0.6,0.8-1.7,0.2-2.4
				c-0.3-0.4-0.8-0.6-1.3-0.6h0c0.1-0.5,0-1-0.4-1.4c-0.6-0.7-1.7-0.8-2.4-0.2c-0.7,0.6-0.8,1.7-0.2,2.4c0.1,0.1,0.2,0.2,0.3,0.3
				l-1.6,1.3C150.8,389,151.1,389.4,151.5,389.9z"/>
			<path class="st2" d="M157.6,397.8c-0.9-0.3-1.9,0.1-2.2,1c-0.1,0.1-0.1,0.3-0.1,0.4l-2.4-0.9c-0.2,0.6-0.4,1.1-0.6,1.6l2.4,0.9
				c-0.1,0.1-0.2,0.2-0.2,0.4c-0.3,0.9,0.1,1.9,1,2.2c0.9,0.3,1.9-0.1,2.2-1c0.2-0.5,0.1-1-0.1-1.4l0,0c0.4-0.2,0.8-0.5,1-1
				C158.9,399.1,158.5,398.1,157.6,397.8z"/>
			<path class="st2" d="M131.8,390c0.3-0.9-0.1-1.9-1-2.2c-0.9-0.3-1.9,0.1-2.2,1c-0.2,0.5-0.1,1,0.1,1.4c-0.4,0.2-0.8,0.5-1,1
				c-0.3,0.9,0.1,1.9,1,2.2c0.9,0.3,1.9-0.1,2.2-1c0.1-0.1,0.1-0.3,0.1-0.4l2.4,0.9c0.2-0.6,0.4-1.1,0.6-1.6l-2.4-0.9
				C131.7,390.3,131.8,390.1,131.8,390z"/>
			<path class="st2" d="M134.8,401.3l-2.4,2c-0.1-0.1-0.1-0.3-0.2-0.4c-0.6-0.7-1.7-0.8-2.4-0.2c-0.7,0.6-0.8,1.7-0.2,2.4
				c0.3,0.4,0.8,0.6,1.3,0.6c-0.1,0.5,0,1,0.4,1.4c0.6,0.7,1.7,0.8,2.4,0.2c0.7-0.6,0.8-1.7,0.2-2.4c-0.1-0.1-0.2-0.2-0.3-0.3l2.4-2
				C135.5,402.3,135.2,401.8,134.8,401.3z"/>
			<path class="st2" d="M142,388.7c-4.1,0.7-6.8,4.5-6.2,8.6c0.3,1.5,1,2.9,2,3.9l1.9-0.3l0.4,2.3l8.4-1.4l-0.4-2.3l1.9-0.3
				c0.6-1.3,0.8-2.8,0.6-4.4C150,390.8,146.1,388,142,388.7z M140.6,396.5c-0.8,0.1-1.6-0.4-1.7-1.2c-0.1-0.8,0.4-1.6,1.2-1.7
				c0.8-0.1,1.6,0.4,1.7,1.2C142,395.6,141.5,396.4,140.6,396.5z M142.8,399.6l0.7-2.4l1.4,2L142.8,399.6z M145.8,395.7
				c-0.8,0.1-1.6-0.4-1.7-1.2c-0.1-0.8,0.4-1.6,1.2-1.7c0.8-0.1,1.6,0.4,1.7,1.2C147.2,394.8,146.6,395.5,145.8,395.7z"/>
		</g>
		<path class="st15" d="M155.5,473.2c0,2.5-2.5,4.5-5.5,4.5s-5.5-2-5.5-4.5"/>
		<path class="st11" d="M194.3,435.6L194.3,435.6c4.2,0,7.7,3.4,7.7,7.7v2.3c0,4.2-3.4,7.7-7.7,7.7"/>
		<path class="st11" d="M196.1,453.5c0,3.5,0.9,6.3,2,6.3c1.1,0,2-2.8,2-6.3c0-3.5-0.9-6.3-2-6.3"/>
		<line class="st11" x1="191.9" y1="530.6" x2="191.9" y2="590.8"/>
		<line class="st11" x1="107.6" y1="530.6" x2="107.6" y2="590.8"/>
	</g>
	<path class="st11" d="M172.3,507.9c0,17.7-10.1,32.1-22.5,32.1s-22.5-14.4-22.5-32.1"/>
	<circle class="st7" cx="150.1" cy="540" r="3.5"/>
	<circle class="st7" cx="161.3" cy="535" r="3"/>
	<circle class="st7" cx="169.3" cy="525.5" r="3"/>
	<circle class="st7" cx="138.5" cy="535.6" r="3"/>
	<circle class="st7" cx="131.4" cy="525.6" r="3"/>
	<circle class="st7" cx="172.3" cy="513.2" r="3"/>
	<circle class="st7" cx="127.4" cy="513.2" r="3"/>
	<g>
		<g>
			<path class="st11" d="M160.4,574.8c-1.4,4-5.1,6.8-9.4,6.8c-4.3,0-8-2.9-9.4-6.9"/>
			<g>
				<polygon class="st7" points="157.8,576 160.2,575.5 162.2,576.8 161,571.2 				"/>
			</g>
			<g>
				<polygon class="st7" points="144.2,576 141.8,575.5 139.8,576.8 141,571.2 				"/>
			</g>
		</g>
	</g>
	<line class="st11" x1="151" y1="561.1" x2="151" y2="581.1"/>
	<circle class="st11" cx="151" cy="559.5" r="2"/>
	<line class="st11" x1="145" y1="564.9" x2="157" y2="564.9"/>
	<rect x="-182.8" y="438.5" class="st2" width="31" height="6.1"/>
	<path class="st15" d="M-152.8,437.5l-30.7,0.2 M-152.7,445.5l-30.7,0.2"/>
	<g>
		
			<rect x="-152.5" y="431.5" transform="matrix(1 -5.275190e-03 5.275190e-03 1 -2.3307 -0.7458)" class="st15" width="20" height="20"/>
		
			<rect x="-147.5" y="436.5" transform="matrix(1 -5.270454e-03 5.270454e-03 1 -2.3286 -0.7451)" class="st7" width="10" height="10"/>
	</g>
	<rect x="-132" y="437.4" class="st2" width="51.1" height="7.2"/>
	<g>
		<line class="st15" x1="-80.9" y1="437.1" x2="-133.4" y2="437.4"/>
		<line class="st15" x1="-80.9" y1="445.1" x2="-133.3" y2="445.4"/>
	</g>
	<g>
		<path class="st11" d="M194.8,100.4L194.8,100.4c4.2,0,7.7,3.4,7.7,7.7v2.3c0,4.2-3.4,7.7-7.7,7.7"/>
		<g>
			<path class="st8" d="M107.4,254.9h85.3v-76.7c-11.7-8.9-26.3-14.1-42.1-14.1c-16.3,0-31.2,5.6-43.1,14.9V254.9z"/>
			<polyline class="st15" points="141.1,178.6 150,204.7 158.9,178.6 			"/>
			<g>
				<path class="st11" d="M107.4,178.4v76 M192.6,178.4v76"/>
			</g>
			<path class="st7" d="M151,158.3c1.1,0,2,0.5,2,1.1v7.7c0,0.6-0.9,1.1-2,1.1l0,0c-1.1,0-2-0.5-2-1.1v-7.7
				C149,158.8,149.9,158.3,151,158.3L151,158.3z"/>
			<path class="st11" d="M220,253.9v-20v-0.8c0-38.7-31.3-70-70-70s-70,31.3-70,70v0.8v20"/>
			<line class="st11" x1="150" y1="203.5" x2="150" y2="253.9"/>
			<polygon class="st15" points="178.5,166.2 149.2,176.9 121.5,168.3 134.7,204.7 149.3,178.6 163.9,204.7 			"/>
			<path class="st15" d="M106.7,84.3l-1.7,45c0,27,20.1,48.9,45,48.9c24.9,0,45-21.9,45-48.9l-1.7-45H106.7z"/>
			<line class="st11" x1="168.3" y1="115.4" x2="194.8" y2="115.4"/>
			<line class="st11" x1="149" y1="84.3" x2="166.1" y2="115"/>
			<path class="st11" d="M105.5,118L105.5,118c-4.2,0-7.7-3.4-7.7-7.7V108c0-4.2,3.4-7.7,7.7-7.7"/>
			<g>
				<circle class="st7" cx="166.3" cy="115.4" r="11"/>
				<g>
					<circle class="st7" cx="133.9" cy="115" r="5"/>
					<circle class="st7" cx="166.1" cy="115" r="5"/>
				</g>
				<path class="st7" d="M158.7,147.5c0,1.1-0.9,2-2,2h-13.5c-1.1,0-2-0.9-2-2l0,0c0-1.1,0.9-2,2-2h13.5
					C157.9,145.5,158.7,146.4,158.7,147.5L158.7,147.5z"/>
			</g>
			<path class="st7" d="M216.2,76.2H199c0-19.4-21.9-35.1-49-35.1s-49,15.7-49,35.1H83.8c-4.9,0-8.8,4-8.8,8.8c0,4.9,4,8.8,8.8,8.8
				h132.3c4.9,0,8.8-4,8.8-8.8C225,80.2,221,76.2,216.2,76.2z"/>
			<g>
				<path class="st2" d="M161.3,62.2l2.1-1.2c0,0.2,0.1,0.3,0.2,0.5c0.6,1,1.8,1.3,2.8,0.8c1-0.6,1.3-1.8,0.8-2.8
					c-0.3-0.5-0.8-0.9-1.4-1l0,0c0.2-0.5,0.2-1.2-0.2-1.7c-0.6-1-1.8-1.3-2.8-0.8c-1,0.6-1.3,1.8-0.8,2.8c0.1,0.2,0.2,0.3,0.3,0.4
					l-2.1,1.2C160.6,60.9,161,61.5,161.3,62.2z"/>
				<path class="st2" d="M167,72.8c-1-0.6-2.2-0.2-2.8,0.8c-0.1,0.2-0.2,0.3-0.2,0.5l-2.7-1.6c-0.3,0.6-0.6,1.2-1,1.8l2.7,1.6
					c-0.1,0.1-0.2,0.3-0.3,0.4c-0.6,1-0.2,2.2,0.8,2.8c1,0.6,2.2,0.2,2.8-0.8c0.3-0.5,0.3-1.2,0.2-1.7h0c0.6-0.1,1.1-0.4,1.4-1
					C168.3,74.6,168,73.3,167,72.8z"/>
				<path class="st2" d="M138,58.4c0.6-1,0.2-2.2-0.8-2.8c-1-0.6-2.2-0.2-2.8,0.8c-0.3,0.5-0.3,1.2-0.2,1.7c-0.6,0.1-1.1,0.4-1.4,1
					c-0.6,1-0.2,2.2,0.8,2.8c1,0.6,2.2,0.2,2.8-0.8c0.1-0.2,0.1-0.3,0.2-0.5l2.7,1.6c0.3-0.6,0.6-1.2,1-1.8l-2.7-1.6
					C137.8,58.7,137.9,58.6,138,58.4z"/>
				<path class="st2" d="M139.3,72.5l-3.3,1.9c0-0.2-0.1-0.3-0.2-0.5c-0.6-1-1.8-1.3-2.8-0.8c-1,0.6-1.3,1.8-0.8,2.8
					c0.3,0.5,0.8,0.9,1.4,1c-0.2,0.5-0.2,1.2,0.2,1.7c0.6,1,1.8,1.3,2.8,0.8c1-0.6,1.3-1.8,0.8-2.8c-0.1-0.2-0.2-0.3-0.3-0.4
					l3.3-1.9C140,73.7,139.6,73.1,139.3,72.5z"/>
				<path class="st2" d="M150.3,58.9c-5,0-9,4-9,9c0,1.9,0.6,3.6,1.5,5h2.3v2.8h10.2V73h2.3c1-1.4,1.6-3.2,1.6-5
					C159.3,62.9,155.3,58.9,150.3,58.9z M147.1,67.9c-1,0-1.8-0.8-1.8-1.8c0-1,0.8-1.8,1.8-1.8c1,0,1.8,0.8,1.8,1.8
					C148.9,67.1,148.1,67.9,147.1,67.9z M149,72l1.2-2.7l1.2,2.7H149z M153.4,67.9c-1,0-1.8-0.8-1.8-1.8c0-1,0.8-1.8,1.8-1.8
					c1,0,1.8,0.8,1.8,1.8C155.2,67.1,154.4,67.9,153.4,67.9z"/>
			</g>
			
				<rect x="112.1" y="240.9" transform="matrix(0.6649 -0.747 0.747 0.6649 -138.3879 179.3979)" class="st2" width="37.3" height="6.1"/>
			<path class="st15" d="M139.4,228.1l-24.1,26.9 M145.4,233.3l-20.3,23.1"/>
			<g>
				
					<rect x="139.2" y="213.1" transform="matrix(0.6609 -0.7505 0.7505 0.6609 -116.814 187.5776)" class="st15" width="20" height="20"/>
				
					<rect x="144.2" y="218.1" transform="matrix(0.6609 -0.7505 0.7505 0.6609 -116.814 187.5791)" class="st7" width="10" height="10"/>
			</g>
			<polygon class="st2" points="192.6,178.3 158.5,217.3 153.1,212.5 187.1,174.3 			"/>
			<g>
				<line class="st15" x1="186.9" y1="174.2" x2="152.2" y2="213.5"/>
				<line class="st15" x1="192.9" y1="179.5" x2="158.2" y2="218.8"/>
			</g>
		</g>
	</g>
	<path class="st17" d="M1940,91.6c6.2-2.6,12.2-5.9,18.5-7.8c18.8-5.8,37.7-10.9,56.5-16.8c10-3.2,19.7-7.4,29.6-11
		c2.2-0.8,4.9-1.5,7.1-1.1c12.6,2.4,25.1,2,37.6-0.4c1.4-0.3,3-0.4,4.2,0.1c25,11.2,51.8,17.1,77.5,26c9,3.1,17.7,7.1,26.4,10.9
		c1.2,0.5,2.6,2.6,2.4,3.7c-3,17-8.6,32.9-19.6,46.5c-0.5,0.6-0.8,1.2-1.4,2c-11.7-6-23.4-10.1-37.1-10.5c0,42.3,0,84.3,0,126.4
		c-48,9.6-95.1,6.8-142.7-0.3c0-41.8,0-83.5,0-125.6c-13.9-0.3-25.5,5.4-37.6,10.2c-6.8-8.5-11.5-18.1-15.1-28.2
		c-2.4-6.7-4.3-13.6-6.4-20.5C1940,94,1940,92.8,1940,91.6z M2038.8,63c-12.5,3.9-24.7,7.7-37,11.5c0.8,3.1,1.6,5.9,2.3,8.7
		c3.3,12.7,4.7,25.4,0.7,38.2c-0.9,3.1-2.8,6.1-2.8,9.1c0,38.8,0.3,77.6,0.5,116.4c0,1.1,0.2,2.2,0.3,3.3
		c36.5,8.4,106,8.2,135.3-0.5c0.1-1.1,0.2-2.2,0.2-3.4c0.3-37.6,0.6-75.2,0.7-112.9c0-2.4-0.7-4.9-1.6-7.2
		c-3.5-8.9-5.1-18.1-3.6-27.6c1.3-8.2,3.1-16.3,4.8-24.7c-12.4-4.1-24.8-8.2-37.3-12.3c-6.4,14.5-15.5,25.4-32.9,24.7
		C2053.2,85.9,2043.9,76.9,2038.8,63z M1999.9,74.6c-3.2,0.8-5.9,1.3-8.5,2.1c-13.3,4.5-26.6,9-39.8,13.7c-1.1,0.4-2.6,2.6-2.4,3.6
		c3.2,14.3,8.3,27.7,17.3,39.5c2,2.6,3.6,3.1,6.9,2.2c7.8-2.2,15.9-3.6,23.8-5.5c1.4-0.3,3-1.7,3.6-3
		C2009,109.8,2005.4,92.4,1999.9,74.6z M2172.3,135.4c9.8-11.3,15.6-25.7,19-41.2c0.2-0.8-1.1-2.6-2.1-3c-5.6-2.5-11.3-4.9-17.1-6.9
		c-10.2-3.5-20.6-6.6-31.3-10c-1.1,4.1-2.2,7.6-3.1,11.1c-3.5,14-4.4,27.8,1.8,41.3c0.6,1.4,2.5,2.7,4,3.1
		C2152.9,131.8,2162.2,133.5,2172.3,135.4z M2002.7,256.6c8.3,1,16.1,1.9,24,2.8c36.1,4.4,72,4.4,107.9-1.8c3.8-0.7,4.2-2.2,3.2-5.9
		c-44.8,9.5-89.8,7.2-134.7,0.6c-0.1,0-0.2,0.2-0.4,0.4C2002.7,253.9,2002.7,255,2002.7,256.6z M2047.2,58.7c-7.6,2.4-7.9,3-4.3,9.6
		c1,1.8,2,3.6,3.3,5.2c8.1,9.7,18.4,13.4,30.7,10.6c10.5-2.3,21-13.8,22.4-23.8c-1.7-0.7-3.4-1.4-5.2-2.1
		c-4.4,14.6-11.7,21-23.3,20.5C2058,78.1,2049.8,71.3,2047.2,58.7z M2090,65.1c-6.9,0.7-13.2,1.8-19.4,1.9
		c-6.4,0.1-12.7-0.7-19.3-1.2c4.4,8.4,12,11.3,20.8,11.3C2080.3,77.1,2086.2,73,2090,65.1z M2049.3,58.3c0.3,4.7,0.3,4.7,4.2,5.6
		c11.2,2.4,22.4,1.6,33.6-0.3c4.1-0.7,5.2-2.3,4.6-5.9c-7.2,0.7-14.2,1.9-21.1,2C2063.5,59.8,2056.6,58.8,2049.3,58.3z M2194.3,92.4
		c-3.1,8.8-5.1,16.7-8.4,24c-3.3,7.3-7.9,14-12,21.1c0.9,0.5,2.3,1.1,3.9,1.9c0.8-0.9,1.5-1.6,2.1-2.4c9-12,13.8-25.7,16.5-40.3
		C2196.6,95.7,2195.2,94.3,2194.3,92.4z M1947.2,92.9c-0.6-0.1-1.2-0.3-1.8-0.4c-0.4,1.4-1.4,3-1.1,4.2c1.8,6.9,3.5,14,6.2,20.5
		c3.2,7.8,7.4,15.1,11.3,22.8c2.5-1.1,4-1.7,5.9-2.5C1956.6,124.3,1950.9,109.1,1947.2,92.9z"/>
	<g>
		<path class="st11" d="M2086.5,145.4L2086.5,145.4c1.4,0,2.6,1.1,2.6,2.6v0.8c0,1.4-1.1,2.6-2.6,2.6"/>
		<g>
			<path class="st8" d="M2057.4,196.9h28.4v-25.6c-3.9-3-8.8-4.7-14-4.7c-5.4,0-10.4,1.9-14.4,5V196.9z"/>
			<polyline class="st15" points="2068.6,171.5 2071.6,180.1 2074.6,171.5 			"/>
			<g>
				<path class="st11" d="M2057.4,171.4v25.3 M2085.8,171.4v25.3"/>
			</g>
			<path class="st7" d="M2071.9,164.7c0.4,0,0.7,0.2,0.7,0.4v2.6c0,0.2-0.3,0.4-0.7,0.4l0,0c-0.4,0-0.7-0.2-0.7-0.4v-2.6
				C2071.3,164.8,2071.6,164.7,2071.9,164.7L2071.9,164.7z"/>
			<path class="st11" d="M2094.9,196.6v-6.7v-0.3c0-12.9-10.4-23.3-23.3-23.3s-23.3,10.4-23.3,23.3v0.3v6.7"/>
			<line class="st11" x1="2071.6" y1="179.7" x2="2071.6" y2="196.6"/>
			<polygon class="st15" points="2081.1,167.3 2071.3,170.9 2062.1,168 2066.5,180.1 2071.4,171.4 2076.2,180.1 			"/>
			<path class="st15" d="M2057.2,140l-0.6,15c0,9,6.7,16.3,15,16.3c8.3,0,15-7.3,15-16.3l-0.6-15H2057.2z"/>
			<line class="st11" x1="2077.7" y1="150.4" x2="2086.5" y2="150.4"/>
			<line class="st11" x1="2071.3" y1="140" x2="2077" y2="150.3"/>
			<path class="st11" d="M2056.8,151.3L2056.8,151.3c-1.4,0-2.6-1.1-2.6-2.6v-0.8c0-1.4,1.1-2.6,2.6-2.6"/>
			<g>
				<path class="st7" d="M2080.7,150.4c0,2-1.6,3.7-3.7,3.7c-2,0-3.7-1.6-3.7-3.7c0-2,1.6-3.7,3.7-3.7
					C2079.1,146.7,2080.7,148.3,2080.7,150.4z"/>
				<g>
					<path class="st7" d="M2067.9,150.3c0,0.9-0.7,1.7-1.7,1.7s-1.7-0.7-1.7-1.7s0.7-1.7,1.7-1.7S2067.9,149.3,2067.9,150.3z"/>
					<path class="st7" d="M2078.6,150.3c0,0.9-0.7,1.7-1.7,1.7s-1.7-0.7-1.7-1.7s0.7-1.7,1.7-1.7S2078.6,149.3,2078.6,150.3z"/>
				</g>
				<path class="st7" d="M2074.9,161.1c0,0.4-0.3,0.7-0.7,0.7h-4.5c-0.4,0-0.7-0.3-0.7-0.7l0,0c0-0.4,0.3-0.7,0.7-0.7h4.5
					C2074.6,160.4,2074.9,160.7,2074.9,161.1L2074.9,161.1z"/>
			</g>
			<path class="st7" d="M2072,165c0.4,0,0.7,0.2,0.7,0.4v2.6c0,0.2-0.3,0.4-0.7,0.4l0,0c-0.4,0-0.7-0.2-0.7-0.4v-2.6
				C2071.3,165.1,2071.6,165,2072,165L2072,165z"/>
			<path class="st7" d="M2093.7,137h-5.7c0-6.5-7.3-11.7-16.3-11.7s-16.3,5.2-16.3,11.7h-5.7c-1.6,0-2.9,1.3-2.9,2.9
				c0,1.6,1.3,2.9,2.9,2.9h44.1c1.6,0,2.9-1.3,2.9-2.9C2096.6,138.3,2095.3,137,2093.7,137z"/>
			<g>
				<path class="st2" d="M2075.4,132.3l0.7-0.4c0,0.1,0,0.1,0.1,0.2c0.2,0.3,0.6,0.4,0.9,0.3c0.3-0.2,0.4-0.6,0.3-0.9
					c-0.1-0.2-0.3-0.3-0.5-0.3h0c0.1-0.2,0.1-0.4-0.1-0.6c-0.2-0.3-0.6-0.4-0.9-0.3c-0.3,0.2-0.4,0.6-0.3,0.9c0,0.1,0.1,0.1,0.1,0.1
					l-0.7,0.4C2075.1,131.9,2075.3,132.1,2075.4,132.3z"/>
				<path class="st2" d="M2077.3,135.8c-0.3-0.2-0.7-0.1-0.9,0.3c0,0.1,0,0.1-0.1,0.2l-0.9-0.5c-0.1,0.2-0.2,0.4-0.3,0.6l0.9,0.5
					c0,0-0.1,0.1-0.1,0.1c-0.2,0.3-0.1,0.7,0.3,0.9c0.3,0.2,0.7,0.1,0.9-0.3c0.1-0.2,0.1-0.4,0.1-0.6h0c0.2,0,0.4-0.1,0.5-0.3
					C2077.7,136.4,2077.6,136,2077.3,135.8z"/>
				<path class="st2" d="M2067.6,131c0.2-0.3,0.1-0.7-0.2-0.9c-0.3-0.2-0.8-0.1-0.9,0.3c-0.1,0.2-0.1,0.4-0.1,0.6
					c-0.2,0-0.4,0.1-0.5,0.3c-0.2,0.3-0.1,0.7,0.3,0.9c0.3,0.2,0.7,0.1,0.9-0.3c0-0.1,0.1-0.1,0.1-0.2l0.9,0.5
					c0.1-0.2,0.2-0.4,0.3-0.6l-0.9-0.5C2067.5,131.1,2067.6,131.1,2067.6,131z"/>
				<path class="st2" d="M2068,135.7l-1.1,0.6c0-0.1,0-0.1-0.1-0.2c-0.2-0.3-0.6-0.4-0.9-0.3c-0.3,0.2-0.4,0.6-0.3,0.9
					c0.1,0.2,0.3,0.3,0.5,0.3c-0.1,0.2,0,0.4,0.1,0.6c0.2,0.3,0.6,0.4,0.9,0.3c0.3-0.2,0.4-0.6,0.3-0.9c0-0.1-0.1-0.1-0.1-0.1
					l1.1-0.6C2068.3,136.1,2068.1,135.9,2068,135.7z"/>
				<path class="st2" d="M2071.7,131.2c-1.7,0-3,1.3-3,3c0,0.6,0.2,1.2,0.5,1.7h0.8v0.9h3.4v-0.9h0.8c0.3-0.5,0.5-1.1,0.5-1.7
					C2074.7,132.6,2073.4,131.2,2071.7,131.2z M2070.7,134.2c-0.3,0-0.6-0.3-0.6-0.6c0-0.3,0.3-0.6,0.6-0.6s0.6,0.3,0.6,0.6
					C2071.3,133.9,2071,134.2,2070.7,134.2z M2071.3,135.6l0.4-0.9l0.4,0.9H2071.3z M2072.8,134.2c-0.3,0-0.6-0.3-0.6-0.6
					c0-0.3,0.3-0.6,0.6-0.6c0.3,0,0.6,0.3,0.6,0.6C2073.4,133.9,2073.1,134.2,2072.8,134.2z"/>
			</g>
			
				<rect x="2059" y="192.2" transform="matrix(0.6649 -0.7469 0.7469 0.6649 547.7328 1607.3109)" class="st2" width="12.4" height="2"/>
			<path class="st15" d="M2068.1,187.9l-8,9 M2070.1,189.7l-6.8,7.7"/>
			<g>
				
					<rect x="2068" y="182.9" transform="matrix(0.6609 -0.7504 0.7504 0.6609 562.5343 1617.5648)" class="st15" width="6.7" height="6.7"/>
				
					<rect x="2069.7" y="184.6" transform="matrix(0.6609 -0.7505 0.7505 0.6609 562.6902 1617.7299)" class="st7" width="3.3" height="3.3"/>
			</g>
			<polygon class="st2" points="2085.8,171.3 2074.5,184.3 2072.7,182.7 2084,170 			"/>
			<g>
				<line class="st15" x1="2083.9" y1="170" x2="2072.4" y2="183.1"/>
				<line class="st15" x1="2085.9" y1="171.7" x2="2074.4" y2="184.8"/>
			</g>
		</g>
	</g>
	<text transform="matrix(1 0 0 1 2045.9966 112.2715)" class="st18" style="font-family:'Courier-Bold'; font-size:16px;">think</text>
	<text transform="matrix(1 0 0 1 2033.9941 221)" class="st19" style="font-family:'Courier-Bold'; font-size:12px;">secret map</text>
	<path class="st17" d="M2260,83.6c6.2-2.6,12.2-5.9,18.5-7.8c18.8-5.8,37.7-10.9,56.5-16.8c10-3.2,19.7-7.4,29.6-11
		c2.2-0.8,4.9-1.5,7.1-1.1c12.6,2.4,25.1,2,37.6-0.4c1.4-0.3,3-0.4,4.2,0.1c25,11.2,51.8,17.1,77.5,26c9,3.1,17.7,7.1,26.4,10.9
		c1.2,0.5,2.6,2.6,2.4,3.7c-3,17-8.6,32.9-19.6,46.5c-0.5,0.6-0.8,1.2-1.4,2c-11.7-6-23.4-10.1-37.1-10.5c0,42.3,0,84.3,0,126.4
		c-48,9.6-95.1,6.8-142.7-0.3c0-41.8,0-83.5,0-125.6c-13.9-0.3-25.5,5.4-37.6,10.2c-6.8-8.5-11.5-18.1-15.1-28.2
		c-2.4-6.7-4.3-13.6-6.4-20.5C2260,86,2260,84.8,2260,83.6z M2358.8,54.9c-12.5,3.9-24.7,7.7-37,11.5c0.8,3.1,1.6,5.9,2.3,8.7
		c3.3,12.7,4.7,25.4,0.7,38.2c-0.9,3.1-2.8,6.1-2.8,9.1c0,38.8,0.3,77.6,0.5,116.4c0,1.1,0.2,2.2,0.3,3.3
		c36.5,8.4,106,8.2,135.3-0.5c0.1-1.1,0.2-2.2,0.2-3.4c0.3-37.6,0.6-75.2,0.7-112.9c0-2.4-0.7-4.9-1.6-7.2
		c-3.5-8.9-5.1-18.1-3.6-27.6c1.3-8.2,3.1-16.3,4.8-24.7c-12.4-4.1-24.8-8.2-37.3-12.3c-6.4,14.5-15.5,25.4-32.9,24.7
		C2373.2,77.8,2363.9,68.9,2358.8,54.9z M2319.9,66.5c-3.2,0.8-5.9,1.3-8.5,2.1c-13.3,4.5-26.6,9-39.8,13.7
		c-1.1,0.4-2.6,2.6-2.4,3.6c3.2,14.3,8.3,27.7,17.3,39.5c2,2.6,3.6,3.1,6.9,2.2c7.8-2.2,15.9-3.6,23.8-5.5c1.4-0.3,3-1.7,3.6-3
		C2329,101.7,2325.4,84.4,2319.9,66.5z M2492.3,127.4c9.8-11.3,15.6-25.7,19-41.2c0.2-0.8-1.1-2.6-2.1-3c-5.6-2.5-11.3-4.9-17.1-6.9
		c-10.2-3.5-20.6-6.6-31.3-10c-1.1,4.1-2.2,7.6-3.1,11.1c-3.5,14-4.4,27.8,1.8,41.3c0.6,1.4,2.5,2.7,4,3.1
		C2472.9,123.8,2482.2,125.4,2492.3,127.4z M2322.7,248.6c8.3,1,16.1,1.9,24,2.8c36.1,4.4,72,4.4,107.9-1.8c3.8-0.7,4.2-2.2,3.2-5.9
		c-44.8,9.5-89.8,7.2-134.7,0.6c-0.1,0-0.2,0.2-0.4,0.4C2322.7,245.8,2322.7,247,2322.7,248.6z M2367.2,50.7c-7.6,2.4-7.9,3-4.3,9.6
		c1,1.8,2,3.6,3.3,5.2c8.1,9.7,18.4,13.4,30.7,10.6c10.5-2.3,21-13.8,22.4-23.8c-1.7-0.7-3.4-1.4-5.2-2.1
		c-4.4,14.6-11.7,21-23.3,20.5C2378,70.1,2369.8,63.2,2367.2,50.7z M2410,57c-6.9,0.7-13.2,1.8-19.4,1.9c-6.4,0.1-12.7-0.7-19.3-1.2
		c4.4,8.4,12,11.3,20.8,11.3C2400.3,69,2406.2,65,2410,57z M2369.3,50.3c0.3,4.7,0.3,4.7,4.2,5.6c11.2,2.4,22.4,1.6,33.6-0.3
		c4.1-0.7,5.2-2.3,4.6-5.9c-7.2,0.7-14.2,1.9-21.1,2C2383.5,51.8,2376.6,50.8,2369.3,50.3z M2514.3,84.4c-3.1,8.8-5.1,16.7-8.4,24
		c-3.3,7.3-7.9,14-12,21.1c0.9,0.5,2.3,1.1,3.9,1.9c0.8-0.9,1.5-1.6,2.1-2.4c9-12,13.8-25.7,16.5-40.3
		C2516.6,87.6,2515.2,86.3,2514.3,84.4z M2267.2,84.9c-0.6-0.1-1.2-0.3-1.8-0.4c-0.4,1.4-1.4,3-1.1,4.2c1.8,6.9,3.5,14,6.2,20.5
		c3.2,7.8,7.4,15.1,11.3,22.8c2.5-1.1,4-1.7,5.9-2.5C2276.6,116.3,2270.9,101,2267.2,84.9z"/>
	<text transform="matrix(1 0 0 1 2365.9966 104.2363)" class="st18" style="font-family:'Courier-Bold'; font-size:16px;">think</text>
	<text transform="matrix(1 0 0 1 2353.9941 212.9648)" class="st19" style="font-family:'Courier-Bold'; font-size:12px;">secret map</text>
	<g>
		<path class="st11" d="M2409.2,148.7c0,17.2-14.3,19.3-24.8,19.3c-10.5,0-13.2-7.3-13.2-24.5c0-17.2,7.6-27,18.1-27
			S2409.2,131.6,2409.2,148.7z"/>
		<path class="st15" d="M2413.1,190.6v-4.1v-4.1v-4.1v-4.1c0-1.7-0.4-3.2-1.1-4.7c-0.7-1.4-1.7-2.7-2.9-3.8c-1.2-1.1-2.7-2-4.4-2.6
			c-1.6-0.6-3.4-0.9-5.3-0.9h-4.6v0.1v-3.3h-9.3v3.3v-0.1h-4.6c-1.9,0-3.7,0.3-5.3,0.9c-1.6,0.6-3.1,1.5-4.4,2.6
			c-1.2,1.1-2.2,2.4-2.9,3.8c-0.7,1.4-1.1,3-1.1,4.7v4.1v4.1v4.1v4.1H2413.1z"/>
		<polyline class="st15" points="2394.8,162.5 2394.8,162.6 2394.8,159.3 2385.5,159.3 2385.5,162.6 2385.5,162.5 		"/>
		<ellipse class="st15" cx="2390.2" cy="140.6" rx="15" ry="19.7"/>
		<path class="st15" d="M2377.7,166.9c0-21.7,6.8-39.4,15.1-39.4l0.1,0.3c0,6.8,6.5,8.1,14.4,8.1c0,0-2.4-10.1-4.3-12.4
			c-1.8-2.3-4-4.1-6.4-5.2c-2.4-1.2-4.9-1.8-7.5-1.8s-5.1,0.6-7.3,1.8c-2.2,1.2-4.1,2.9-5.7,5.2c-1.6,2.3-2.9,5.1-3.8,8.5
			c-0.9,3.3-1.3,7.2-1.3,11.5c0,4.3,0.2,8,0.6,11.1c0.4,3.1,1.1,5.6,2.1,7.6c1,2,2.3,3.4,4.1,4.4"/>
		<path class="st13" d="M2406.1,131c0,0-2.3-7.5-4.1-9.2c-1.7-1.7-3.8-3-6.1-3.9c-2.2-0.9-4.7-1.3-7.2-1.3c-2.5,0-4.8,0.5-6.9,1.3
			c-2.1,0.9-3.9,2.2-5.4,3.9c-1.5,1.7-2.7,3.8-3.6,6.3c-0.8,2.5-1.3,5.3-1.3,8.5"/>
		<path class="st13" d="M2373.8,135.1c0.1,0.5-4.2,1.9-9.6,3.1c-5.4,1.2-9.9,1.7-10,1.2c-0.1-0.5,4.2-1.9,9.6-3.1
			C2369.2,135.2,2373.7,134.6,2373.8,135.1z"/>
		<path class="st13" d="M2373.9,135.2c-0.1,0.5-4.6,0.1-10.1-0.8c-5.5-1-9.8-2.2-9.8-2.7c0.1-0.5,4.6-0.1,10.1,0.8
			C2369.6,133.5,2374,134.7,2373.9,135.2z"/>
		<pattern  id="SVGID_4_" xlink:href="#New_Pattern_Swatch_7" patternTransform="matrix(0.3308 0 0 0.3308 -3891.1497 -5086.2363)">
		</pattern>
		<path class="st20" d="M2385.6,162.7c0,2,2.1,3.7,4.6,3.7s4.6-1.6,4.6-3.7l0-0.1h4.6c1.9,0,3.7,0.3,5.3,0.9
			c1.6,0.6,3.1,1.5,4.4,2.6c1.2,1.1,2.2,2.4,2.9,3.8c0.7,1.4,1.1,3,1.1,4.7v4.1v4.1v4.1v4.1h-46v-4.1v-4.1v-4.1v-4.1
			c0-1.7,0.4-3.2,1.1-4.7c0.7-1.4,1.7-2.7,2.9-3.8c1.2-1.1,2.7-2,4.4-2.6c1.6-0.6,3.4-0.9,5.3-0.9h4.6"/>
		<path class="st13" d="M2372.8,135.2c0,1.3-1,2.3-2.3,2.3c-1.3,0-2.3-1-2.3-2.3c0-1.3,1-2.3,2.3-2.3
			C2371.7,132.9,2372.8,133.9,2372.8,135.2z"/>
		<polygon class="st15" points="2385.3,173.5 2385.3,173.5 2385.3,173.5 2385.3,173.5 		"/>
		<line class="st11" x1="2384.4" y1="162.6" x2="2385.8" y2="162.6"/>
		<rect x="2363.6" y="189.7" class="st2" width="54.4" height="3.2"/>
		<g>
			<circle class="st7" cx="2384.9" cy="140.9" r="1.7"/>
			<path class="st7" d="M2397.2,140.9c0,0.9-0.7,1.7-1.7,1.7c-0.9,0-1.7-0.7-1.7-1.7c0-0.9,0.7-1.7,1.7-1.7
				C2396.4,139.3,2397.2,140,2397.2,140.9z"/>
		</g>
		<g>
			<path class="st2" d="M2390.7,123.6l0.5-0.4c0,0,0,0.1,0.1,0.1c0.2,0.2,0.6,0.3,0.8,0.1c0.2-0.2,0.3-0.6,0.1-0.8
				c-0.1-0.1-0.3-0.2-0.4-0.2l0,0c0-0.2,0-0.3-0.1-0.5c-0.2-0.2-0.6-0.3-0.8-0.1c-0.2,0.2-0.3,0.6-0.1,0.8c0,0,0.1,0.1,0.1,0.1
				l-0.5,0.4C2390.4,123.3,2390.6,123.4,2390.7,123.6z"/>
			<path class="st2" d="M2392.7,126.2c-0.3-0.1-0.6,0-0.7,0.3c0,0,0,0.1,0,0.1l-0.8-0.3c-0.1,0.2-0.1,0.4-0.2,0.5l0.8,0.3
				c0,0-0.1,0.1-0.1,0.1c-0.1,0.3,0,0.6,0.3,0.7c0.3,0.1,0.6,0,0.7-0.3c0.1-0.2,0-0.3,0-0.5l0,0c0.1-0.1,0.3-0.2,0.3-0.3
				C2393.1,126.6,2393,126.3,2392.7,126.2z"/>
			<path class="st2" d="M2384.2,123.6c0.1-0.3,0-0.6-0.3-0.7c-0.3-0.1-0.6,0-0.7,0.3c-0.1,0.2,0,0.3,0,0.5c-0.1,0.1-0.3,0.2-0.3,0.3
				c-0.1,0.3,0,0.6,0.3,0.7c0.3,0.1,0.6,0,0.7-0.3c0,0,0-0.1,0-0.1l0.8,0.3c0.1-0.2,0.1-0.4,0.2-0.5l-0.8-0.3
				C2384.1,123.7,2384.2,123.7,2384.2,123.6z"/>
			<path class="st2" d="M2385.2,127.4l-0.8,0.7c0,0,0-0.1-0.1-0.1c-0.2-0.2-0.6-0.3-0.8-0.1c-0.2,0.2-0.3,0.6-0.1,0.8
				c0.1,0.1,0.3,0.2,0.4,0.2c0,0.2,0,0.3,0.1,0.5c0.2,0.2,0.6,0.3,0.8,0.1c0.2-0.2,0.3-0.6,0.1-0.8c0,0-0.1-0.1-0.1-0.1l0.8-0.7
				C2385.4,127.7,2385.3,127.5,2385.2,127.4z"/>
			<path class="st2" d="M2387.5,123.2c-1.4,0.2-2.3,1.5-2,2.9c0.1,0.5,0.3,1,0.7,1.3l0.6-0.1l0.1,0.7l2.8-0.5l-0.1-0.7l0.6-0.1
				c0.2-0.4,0.3-0.9,0.2-1.4C2390.2,123.9,2388.9,123,2387.5,123.2z M2387.1,125.8c-0.3,0-0.5-0.1-0.6-0.4c0-0.3,0.1-0.5,0.4-0.6
				c0.3,0,0.5,0.1,0.6,0.4C2387.5,125.5,2387.4,125.7,2387.1,125.8z M2387.8,126.8l0.2-0.8l0.5,0.7L2387.8,126.8z M2388.8,125.5
				c-0.3,0-0.5-0.1-0.6-0.4s0.1-0.5,0.4-0.6c0.3,0,0.5,0.1,0.6,0.4C2389.3,125.2,2389.1,125.4,2388.8,125.5z"/>
		</g>
		<path class="st15" d="M2392,151.1c0,0.8-0.8,1.5-1.8,1.5s-1.8-0.7-1.8-1.5"/>
		<path class="st11" d="M2404.8,138.7L2404.8,138.7c1.4,0,2.5,1.1,2.5,2.5v0.8c0,1.4-1.1,2.5-2.5,2.5"/>
		<path class="st11" d="M2405.4,144.6c0,1.1,0.3,2.1,0.7,2.1c0.4,0,0.7-0.9,0.7-2.1c0-1.1-0.3-2.1-0.7-2.1"/>
		<line class="st11" x1="2404" y1="170.1" x2="2404" y2="190"/>
		<line class="st11" x1="2376.2" y1="170.1" x2="2376.2" y2="190"/>
	</g>
	<path class="st11" d="M2397.6,162.6c0,5.9-3.3,10.6-7.4,10.6c-4.1,0-7.4-4.8-7.4-10.6"/>
	<path class="st7" d="M2391.4,173.2c0,0.6-0.5,1.2-1.2,1.2c-0.6,0-1.2-0.5-1.2-1.2c0-0.6,0.5-1.2,1.2-1.2
		C2390.8,172.1,2391.4,172.6,2391.4,173.2z"/>
	<circle class="st7" cx="2393.9" cy="171.6" r="1"/>
	<path class="st7" d="M2397.6,168.4c0,0.5-0.4,1-1,1s-1-0.4-1-1c0-0.5,0.4-1,1-1S2397.6,167.9,2397.6,168.4z"/>
	<circle class="st7" cx="2386.4" cy="171.8" r="1"/>
	<circle class="st7" cx="2384" cy="168.5" r="1"/>
	<path class="st7" d="M2398.6,164.4c0,0.5-0.4,1-1,1s-1-0.4-1-1c0-0.5,0.4-1,1-1S2398.6,163.8,2398.6,164.4z"/>
	<path class="st7" d="M2383.7,164.4c0,0.5-0.4,1-1,1c-0.5,0-1-0.4-1-1c0-0.5,0.4-1,1-1C2383.3,163.4,2383.7,163.8,2383.7,164.4z"/>
	<g>
		<g>
			<path class="st11" d="M2392,186.6c-0.4,0.2-0.9,0.4-1.5,0.4c-0.5,0-1-0.1-1.5-0.4"/>
			<g>
				<polygon class="st7" points="2388.9,186.4 2391.2,187 2392.5,189.1 2393.8,183.5 				"/>
			</g>
			<g>
				<polygon class="st7" points="2392.1,186.4 2389.8,187 2388.6,189.1 2387.2,183.5 				"/>
			</g>
		</g>
	</g>
	<line class="st11" x1="2390.5" y1="180.2" x2="2390.5" y2="186.8"/>
	<path class="st11" d="M2391.2,179.7c0,0.4-0.3,0.7-0.7,0.7s-0.7-0.3-0.7-0.7s0.3-0.7,0.7-0.7S2391.2,179.3,2391.2,179.7z"/>
	<line class="st11" x1="2388.5" y1="181.4" x2="2392.5" y2="181.4"/>
	<path class="st8" d="M113.6,156c3.3,5.4,10.2,13,16.1,16.2c5.9,3.2,12.9,5,20.3,5c7.4,0,14.4-1.8,20.3-5
		c5.9-3.2,12.8-10.7,16.1-16.2L150,168.3L113.6,156z"/>
	<path class="st7" d="M150,160.3c1.1,0,2,0.5,2,1.1v7.7c0,0.6-0.9,1.1-2,1.1l0,0c-1.1,0-2-0.5-2-1.1v-7.7
		C148,160.8,148.9,160.3,150,160.3L150,160.3z"/>
	<g>
		<g>
			<g>
				<path class="st21" d="M556.3,523.6c-11,38.7-45.5,66.9-86.3,66.9c-40.8,0-75.3-28.2-86.3-66.9"/>
				<g>
					<polygon class="st7" points="537.2,533.3 554.8,529 570.1,538.7 560,497 					"/>
				</g>
				<g>
					<polygon class="st7" points="402.8,533.3 385.2,529 369.9,538.7 380,497 					"/>
				</g>
			</g>
		</g>
		<line class="st21" x1="470" y1="406.1" x2="470" y2="586.1"/>
		<circle class="st21" cx="470" cy="391.5" r="18"/>
		<line class="st21" x1="416" y1="439.7" x2="524" y2="439.7"/>
	</g>
	<g>
		<path class="st7" d="M790,400.9c-45.4,0-82.1,36.8-82.1,82.1c0,45.4,36.8,82.1,82.1,82.1c45.4,0,82.1-36.8,82.1-82.1
			C872.1,437.6,835.4,400.9,790,400.9z M806.4,499.4l-65.7,32.9l32.9-65.7l65.7-32.9L806.4,499.4z"/>
		<path class="st7" d="M790,368c-63.5,0-115,51.5-115,115s51.5,115,115,115s115-51.5,115-115S853.5,368,790,368z M790,589.8
			c-58.9,0-106.8-47.9-106.8-106.8S731.1,376.2,790,376.2c58.9,0,106.8,47.9,106.8,106.8S848.9,589.8,790,589.8z"/>
		<circle class="st7" cx="790" cy="483" r="8.2"/>
	</g>
	<path class="st7" d="M1176.1,428.3c-14.6,0-27.8,5.9-37.5,15.3H1128c-2.7-4.6-7.5-7.7-13.2-7.7c-5.7,0-10.5,3.1-13.2,7.7H1091
		c-9.7-9.5-22.9-15.3-37.5-15.3c-29.6,0-53.7,24-53.7,53.7s24,53.7,53.7,53.7c29.6,0,53.7-24,53.7-53.7h15.3
		c0,29.6,24,53.7,53.7,53.7c29.6,0,53.7-24,53.7-53.7S1205.7,428.3,1176.1,428.3z M1053.4,520.3c-21.1,0-38.3-17.2-38.3-38.3
		s17.2-38.3,38.3-38.3s38.3,17.2,38.3,38.3S1074.6,520.3,1053.4,520.3z M1176.1,520.3c-21.1,0-38.3-17.2-38.3-38.3
		s17.2-38.3,38.3-38.3c21.1,0,38.3,17.2,38.3,38.3S1197.2,520.3,1176.1,520.3z"/>
</g>
</svg>
